<svg width="1440" height="541" viewBox="0 0 1440 541" fill="none" xmlns="http://www.w3.org/2000/svg">
<g clip-path="url(#clip0_1_14871)">
<rect width="1440" height="540" transform="translate(0 0.800049)" fill="url(#paint0_linear_1_14871)"/>
<rect width="1440" height="540" transform="translate(0 0.800049)" fill="url(#paint1_linear_1_14871)"/>
<path d="M-157.382 536.082L-409.417 331.546C-490.574 265.68 -502.739 146.584 -436.543 65.751C-436.543 65.7509 -436.543 65.7508 -436.542 65.7507L-244.212 -169.334L-157.382 536.082ZM-157.382 536.082L-157.38 536.083M-157.382 536.082L-157.38 536.083M-157.38 536.083L-157.38 536.083M-157.38 536.083L-157.38 536.083M-157.38 536.083C-152.864 539.767 -146.48 535.238 -148.269 529.763C-156.33 505.067 -151.366 475.866 -133.96 454.544L58.3703 219.46C124.547 138.607 112.382 19.5302 31.2248 -46.335L-220.79 -250.871C-225.306 -254.558 -231.693 -250.028 -229.904 -244.552C-221.842 -219.857 -226.806 -190.656 -244.212 -169.335L-157.38 536.083Z" stroke="url(#paint2_linear_1_14871)" stroke-opacity="0.6" stroke-width="2"/>
<path d="M-132.116 536.082L-384.151 331.546C-465.308 265.68 -477.474 146.584 -411.277 65.751C-411.277 65.7509 -411.277 65.7508 -411.277 65.7507L-218.947 -169.334L-132.116 536.082ZM-132.116 536.082L-132.114 536.083M-132.116 536.082L-132.114 536.083M-132.114 536.083L-132.114 536.083M-132.114 536.083L-132.114 536.083M-132.114 536.083C-127.598 539.767 -121.214 535.238 -123.003 529.763C-131.064 505.067 -126.101 475.866 -108.694 454.544L83.636 219.46C149.813 138.607 137.648 19.5302 56.4904 -46.335L-195.525 -250.871C-200.041 -254.558 -206.428 -250.028 -204.638 -244.552C-196.577 -219.857 -201.54 -190.656 -218.946 -169.335L-132.114 536.083Z" stroke="url(#paint3_linear_1_14871)" stroke-opacity="0.6" stroke-width="2"/>
<path d="M-90.9961 545.472L-343.031 340.936C-424.188 275.071 -436.354 155.974 -370.157 75.1412C-370.157 75.141 -370.157 75.1409 -370.157 75.1408L-177.826 -159.944L-90.9961 545.472ZM-90.9961 545.472L-90.9939 545.474M-90.9961 545.472L-90.9939 545.474M-90.9939 545.474L-90.9939 545.474M-90.9939 545.474L-90.9939 545.474M-90.9939 545.474C-86.478 549.157 -80.0939 544.628 -81.8828 539.153C-89.9442 514.457 -84.9807 485.256 -67.5743 463.935L124.756 228.85C190.933 147.997 178.768 28.9203 97.6106 -36.9449L-154.405 -241.481C-158.921 -245.167 -165.307 -240.638 -163.518 -235.162C-155.457 -210.467 -160.42 -181.266 -177.826 -159.945L-90.9939 545.474Z" stroke="url(#paint4_linear_1_14871)" stroke-opacity="0.6" stroke-width="2"/>
<path d="M-62.8252 545.472L-314.86 340.936C-396.017 275.071 -408.183 155.974 -341.986 75.1412C-341.986 75.141 -341.986 75.1409 -341.986 75.1408L-149.656 -159.944L-62.8252 545.472ZM-62.8252 545.472L-62.823 545.474M-62.8252 545.472L-62.823 545.474M-62.823 545.474L-62.823 545.474M-62.823 545.474L-62.823 545.474M-62.823 545.474C-58.3071 549.157 -51.923 544.628 -53.7119 539.153C-61.7733 514.457 -56.8098 485.256 -39.4034 463.935L152.927 228.85C219.104 147.997 206.939 28.9203 125.781 -36.9449L-126.234 -241.481C-130.75 -245.167 -137.137 -240.638 -135.347 -235.162C-127.286 -210.467 -132.249 -181.266 -149.655 -159.945L-62.823 545.474Z" stroke="url(#paint5_linear_1_14871)" stroke-opacity="0.6" stroke-width="2"/>
<path d="M-34.6543 545.472L-286.689 340.936C-367.846 275.071 -380.012 155.974 -313.815 75.1412C-313.815 75.141 -313.815 75.1409 -313.815 75.1408L-121.485 -159.944L-34.6543 545.472ZM-34.6543 545.472L-34.6521 545.474M-34.6543 545.472L-34.6521 545.474M-34.6521 545.474L-34.6521 545.474M-34.6521 545.474L-34.6521 545.474M-34.6521 545.474C-30.1362 549.157 -23.7521 544.628 -25.541 539.153C-33.6024 514.457 -28.6389 485.256 -11.2325 463.935L181.098 228.85C247.275 147.997 235.11 28.9203 153.952 -36.9449L-98.0628 -241.481C-102.579 -245.167 -108.966 -240.638 -107.176 -235.162C-99.1148 -210.467 -104.078 -181.266 -121.484 -159.945L-34.6521 545.474Z" stroke="url(#paint6_linear_1_14871)" stroke-opacity="0.6" stroke-width="2"/>
<path d="M-6.48434 545.472L-258.519 340.936C-339.676 275.071 -351.842 155.974 -285.645 75.1412C-285.645 75.141 -285.645 75.1409 -285.645 75.1408L-93.3147 -159.944L-6.48434 545.472ZM-6.48434 545.472L-6.48215 545.474M-6.48434 545.472L-6.48215 545.474M-6.48215 545.474L-6.48215 545.474M-6.48215 545.474L-6.48215 545.474M-6.48215 545.474C-1.96632 549.157 4.4178 544.628 2.62895 539.153C-5.43249 514.457 -0.469004 485.256 16.9374 463.935L209.268 228.85C275.445 147.997 263.279 28.9203 182.122 -36.9449L-69.8929 -241.481C-74.409 -245.167 -80.7957 -240.638 -79.0062 -235.162C-70.9449 -210.467 -75.9082 -181.266 -93.3141 -159.945L-6.48215 545.474Z" stroke="url(#paint7_linear_1_14871)" stroke-opacity="0.6" stroke-width="2"/>
<g filter="url(#filter0_f_1_14871)">
<circle cx="1350.5" cy="286.3" r="188.5" fill="#AD00FF" fill-opacity="0.48"/>
</g>
</g>
<defs>
<filter id="filter0_f_1_14871" x="725.857" y="-338.343" width="1249.29" height="1249.29" filterUnits="userSpaceOnUse" color-interpolation-filters="sRGB">
<feFlood flood-opacity="0" result="BackgroundImageFix"/>
<feBlend mode="normal" in="SourceGraphic" in2="BackgroundImageFix" result="shape"/>
<feGaussianBlur stdDeviation="218.071" result="effect1_foregroundBlur_1_14871"/>
</filter>
<linearGradient id="paint0_linear_1_14871" x1="720" y1="0" x2="720" y2="540" gradientUnits="userSpaceOnUse">
<stop stop-color="#ED0226"/>
<stop offset="1" stop-color="#B90024"/>
</linearGradient>
<linearGradient id="paint1_linear_1_14871" x1="1761" y1="-124.088" x2="-303.281" y2="354.141" gradientUnits="userSpaceOnUse">
<stop stop-color="#FF7223"/>
<stop offset="1" stop-color="#FF1C1C" stop-opacity="0"/>
</linearGradient>
<linearGradient id="paint2_linear_1_14871" x1="-189.094" y1="536.41" x2="-189.094" y2="-251.2" gradientUnits="userSpaceOnUse">
<stop offset="0.0677083" stop-color="#FFF4F5" stop-opacity="0"/>
<stop offset="0.859375" stop-color="#FF6725"/>
</linearGradient>
<linearGradient id="paint3_linear_1_14871" x1="-163.829" y1="536.41" x2="-163.829" y2="-251.2" gradientUnits="userSpaceOnUse">
<stop offset="0.0677083" stop-color="#FFF4F5" stop-opacity="0"/>
<stop offset="0.859375" stop-color="#FF6725"/>
</linearGradient>
<linearGradient id="paint4_linear_1_14871" x1="-122.709" y1="545.8" x2="-122.708" y2="-241.809" gradientUnits="userSpaceOnUse">
<stop offset="0.0677083" stop-color="#FFF4F5" stop-opacity="0"/>
<stop offset="0.859375" stop-color="#FF6725"/>
</linearGradient>
<linearGradient id="paint5_linear_1_14871" x1="-94.5376" y1="545.8" x2="-94.5376" y2="-241.809" gradientUnits="userSpaceOnUse">
<stop offset="0.0677083" stop-color="#FFF4F5" stop-opacity="0"/>
<stop offset="0.859375" stop-color="#FF6725"/>
</linearGradient>
<linearGradient id="paint6_linear_1_14871" x1="-66.3667" y1="545.8" x2="-66.3667" y2="-241.809" gradientUnits="userSpaceOnUse">
<stop offset="0.0677083" stop-color="#FFF4F5" stop-opacity="0"/>
<stop offset="0.859375" stop-color="#FF6725"/>
</linearGradient>
<linearGradient id="paint7_linear_1_14871" x1="-38.1968" y1="545.8" x2="-38.1967" y2="-241.809" gradientUnits="userSpaceOnUse">
<stop offset="0.0677083" stop-color="#FFF4F5" stop-opacity="0"/>
<stop offset="0.859375" stop-color="#FF6725"/>
</linearGradient>
<clipPath id="clip0_1_14871">
<rect width="1440" height="540" fill="white" transform="translate(0 0.800049)"/>
</clipPath>
</defs>
</svg>
