<svg width="144" height="40" viewBox="0 0 144 40" fill="none" xmlns="http://www.w3.org/2000/svg">
<g clip-path="url(#clip0_116_142647)">
<path d="M134.444 1.72057e-06H9.56145C9.19372 1.72057e-06 8.8304 1.72062e-06 8.46364 0.00200172C8.15663 0.00400172 7.85207 0.00981172 7.54211 0.0147017C6.86874 0.0226035 6.19695 0.081678 5.53259 0.191412C4.86915 0.303534 4.2265 0.514917 3.62637 0.818412C3.02697 1.12447 2.47929 1.52217 2.00318 1.99707C1.52457 2.47064 1.12561 3.01802 0.82165 3.61816C0.516847 4.21711 0.305496 4.85894 0.194896 5.52148C0.083244 6.18319 0.0231632 6.85252 0.0151925 7.52348C0.00588648 7.83008 0.00490373 8.1377 0 8.44434V31.5586C0.00490373 31.8691 0.00588648 32.1699 0.0151925 32.4805C0.0231657 33.1514 0.0832464 33.8207 0.194896 34.4824C0.30519 35.1453 0.516554 35.7875 0.82165 36.3867C1.12548 36.9849 1.52449 37.5301 2.00318 38.001C2.47748 38.478 3.02552 38.876 3.62637 39.1797C4.2265 39.484 4.86908 39.6966 5.53259 39.8105C6.19707 39.9194 6.86879 39.9785 7.54211 39.9873C7.85207 39.9941 8.15663 39.998 8.46364 39.998C8.83039 40 9.19374 40 9.56145 40H134.444C134.804 40 135.171 40 135.531 39.998C135.837 39.998 136.15 39.9941 136.455 39.9873C137.128 39.9789 137.798 39.9198 138.461 39.8105C139.127 39.6958 139.772 39.4833 140.375 39.1797C140.975 38.8758 141.523 38.4778 141.996 38.001C142.474 37.5282 142.874 36.9835 143.181 36.3867C143.484 35.7871 143.693 35.1449 143.802 34.4824C143.914 33.8206 143.976 33.1515 143.988 32.4805C143.992 32.1699 143.992 31.8691 143.992 31.5586C144 31.1953 144 30.834 144 30.4648V9.53613C144 9.16992 144 8.80664 143.992 8.44434C143.992 8.1377 143.992 7.83008 143.988 7.52344C143.976 6.85242 143.914 6.18324 143.802 5.52144C143.693 4.85928 143.484 4.2175 143.181 3.61812C142.562 2.4152 141.581 1.43603 140.375 0.818322C139.772 0.515569 139.127 0.304242 138.461 0.191322C137.798 0.0811045 137.128 0.0220095 136.455 0.0145617C136.15 0.00968172 135.837 0.00382172 135.531 0.00187172C135.171 -0.000128279 134.804 1.72057e-06 134.444 1.72057e-06Z" fill="#A6A6A6"/>
<path d="M8.45527 38.873C8.15027 38.873 7.85264 38.8691 7.55003 38.8624C6.92315 38.8543 6.29774 38.8001 5.67892 38.7004C5.10191 38.6017 4.54293 38.4183 4.02044 38.1561C3.50274 37.896 3.03055 37.555 2.62197 37.1462C2.20748 36.7421 1.86239 36.2735 1.60039 35.7589C1.3355 35.2409 1.15218 34.6857 1.05682 34.1126C0.953835 33.4968 0.898116 32.8741 0.890144 32.2499C0.883797 32.0404 0.875488 31.3429 0.875488 31.3429V8.39447C0.875488 8.39447 0.884338 7.70762 0.890194 7.50583C0.897828 6.88264 0.953222 6.26094 1.0559 5.64609C1.15144 5.07142 1.3349 4.51461 1.59993 3.99494C1.86097 3.48066 2.20414 3.01169 2.61614 2.6062C3.02767 2.19686 3.50137 1.85411 4.01995 1.59047C4.54124 1.32908 5.09916 1.14693 5.67501 1.05011C6.29586 0.949343 6.92344 0.894864 7.55249 0.88713L8.45576 0.875H135.29L136.204 0.887616C136.828 0.894967 137.45 0.94896 138.065 1.04914C138.646 1.14717 139.21 1.33059 139.737 1.59338C140.776 2.1247 141.622 2.9653 142.155 3.99736C142.416 4.51345 142.596 5.06572 142.691 5.63542C142.795 6.25531 142.853 6.8819 142.865 7.5102C142.868 7.79153 142.868 8.09373 142.868 8.39447C142.875 8.767 142.875 9.12158 142.875 9.47907V30.2699C142.875 30.6308 142.875 30.9829 142.868 31.338C142.868 31.661 142.868 31.957 142.864 32.2616C142.852 32.8786 142.795 33.494 142.693 34.1028C142.599 34.6801 142.417 35.2396 142.152 35.7618C141.888 36.2709 141.545 36.7355 141.135 37.1384C140.726 37.5495 140.253 37.8925 139.734 38.1542C139.209 38.4184 138.646 38.6025 138.065 38.7004C137.446 38.8007 136.82 38.8548 136.194 38.8624C135.9 38.8691 135.593 38.873 135.295 38.873L134.21 38.875L8.45527 38.873Z" fill="black"/>
<path d="M29.0454 20.422C29.06 19.3104 29.3603 18.2205 29.9185 17.2537C30.4766 16.287 31.2745 15.4747 32.2378 14.8925C31.6258 14.0333 30.8185 13.3262 29.8799 12.8274C28.9414 12.3286 27.8975 12.0518 26.8311 12.019C24.5563 11.7843 22.3509 13.3572 21.1917 13.3572C20.0101 13.3572 18.2253 12.0423 16.3034 12.0812C15.0603 12.1207 13.8487 12.476 12.7869 13.1127C11.725 13.7493 10.8489 14.6456 10.2441 15.714C7.62419 20.1732 9.57842 26.7268 12.0881 30.3313C13.3437 32.0963 14.8112 34.0679 16.7314 33.998C18.6104 33.9214 19.3122 32.8201 21.5803 32.8201C23.8273 32.8201 24.4857 33.998 26.4449 33.9536C28.4611 33.9214 29.7315 32.1807 30.9431 30.3989C31.8452 29.1413 32.5394 27.7513 33 26.2805C31.8286 25.7935 30.829 24.9782 30.1257 23.9364C29.4225 22.8946 29.0468 21.6723 29.0454 20.422Z" fill="white"/>
<path d="M25.345 9.64861C26.4444 8.35121 26.986 6.68363 26.8548 5C25.1753 5.17342 23.6238 5.96256 22.5096 7.21017C21.9649 7.81967 21.5476 8.52874 21.2818 9.29684C21.0159 10.065 20.9067 10.877 20.9603 11.6867C21.8004 11.6952 22.6315 11.5162 23.391 11.1632C24.1505 10.8101 24.8186 10.2923 25.345 9.64861Z" fill="white"/>
<path d="M55.3932 26.4085H50.3483L49.1368 29.8917H47L51.7784 17.0049H53.9985L58.7769 29.8917H56.6037L55.3932 26.4085ZM50.8708 24.8012H54.8697L52.8984 19.1483H52.8432L50.8708 24.8012Z" fill="white"/>
<path d="M69.0969 25.1948C69.0969 28.1145 67.4919 29.9903 65.0699 29.9903C64.4564 30.0216 63.8462 29.884 63.3093 29.5932C62.7723 29.3025 62.3303 28.8705 62.0339 28.3465H61.988V33.0002H60.0073V20.4965H61.9246V22.0592H61.961C62.2711 21.5378 62.7206 21.108 63.2616 20.8155C63.8026 20.523 64.415 20.3788 65.0335 20.3982C67.4825 20.3982 69.0969 22.2832 69.0969 25.1948ZM67.061 25.1948C67.061 23.2926 66.0514 22.042 64.511 22.042C62.9976 22.042 61.9797 23.3189 61.9797 25.1948C61.9797 27.0879 62.9976 28.3557 64.511 28.3557C66.0514 28.3557 67.061 27.1142 67.061 25.1948Z" fill="white"/>
<path d="M79.717 25.1948C79.717 28.1145 78.1121 29.9903 75.6901 29.9903C75.0765 30.0216 74.4663 29.8839 73.9294 29.5932C73.3925 29.3025 72.9504 28.8705 72.654 28.3465H72.6081V33.0002H70.6274V20.4965H72.5446V22.0592H72.5811C72.8912 21.5378 73.3407 21.108 73.8817 20.8155C74.4227 20.523 75.0351 20.3788 75.6536 20.3982C78.1027 20.3982 79.717 22.2832 79.717 25.1948ZM77.6812 25.1948C77.6812 23.2926 76.6715 22.042 75.1311 22.042C73.6178 22.042 72.5998 23.3189 72.5998 25.1948C72.5998 27.0879 73.6178 28.3557 75.1311 28.3557C76.6716 28.3557 77.6812 27.1142 77.6812 25.1948H77.6812Z" fill="white"/>
<path d="M86.737 26.3011C86.8838 27.5791 88.1588 28.4181 89.9011 28.4181C91.5706 28.4181 92.7718 27.579 92.7718 26.4267C92.7718 25.4265 92.0473 24.8276 90.3321 24.4171L88.6168 24.0148C86.1865 23.4432 85.0582 22.3365 85.0582 20.5407C85.0582 18.3173 87.0483 16.79 89.8741 16.79C92.6708 16.79 94.588 18.3173 94.6525 20.5407H92.6531C92.5334 19.2547 91.4415 18.4784 89.846 18.4784C88.2504 18.4784 87.1585 19.2638 87.1585 20.407C87.1585 21.318 87.8559 21.8541 89.5618 22.2645L91.02 22.6132C93.7355 23.2385 94.8638 24.3005 94.8638 26.1855C94.8638 28.5964 92.8914 30.1064 89.7544 30.1064C86.8192 30.1064 84.8375 28.6319 84.7095 26.301L86.737 26.3011Z" fill="white"/>
<path d="M99.1382 18.2725V20.4959H100.973V22.0232H99.1382V27.2028C99.1382 28.0074 99.5056 28.3824 100.312 28.3824C100.53 28.3787 100.748 28.3638 100.964 28.3378V29.8559C100.601 29.9219 100.233 29.9518 99.8637 29.9451C97.91 29.9451 97.1481 29.2306 97.1481 27.4085V22.0232H95.7451V20.4959H97.1481V18.2725H99.1382Z" fill="white"/>
<path d="M102.036 25.1946C102.036 22.2385 103.824 20.3809 106.612 20.3809C109.41 20.3809 111.19 22.2384 111.19 25.1946C111.19 28.1589 109.419 30.0084 106.612 30.0084C103.806 30.0084 102.036 28.1589 102.036 25.1946ZM109.172 25.1946C109.172 23.1668 108.217 21.9699 106.612 21.9699C105.007 21.9699 104.054 23.1759 104.054 25.1946C104.054 27.2306 105.007 28.4184 106.612 28.4184C108.217 28.4184 109.172 27.2306 109.172 25.1946H109.172Z" fill="white"/>
<path d="M112.823 20.4964H114.712V22.0956H114.758C114.886 21.5962 115.186 21.1548 115.609 20.8456C116.031 20.5365 116.55 20.3785 117.079 20.3981C117.307 20.3973 117.535 20.4215 117.757 20.4701V22.274C117.469 22.1882 117.169 22.1489 116.867 22.1574C116.58 22.1461 116.293 22.1955 116.027 22.3022C115.76 22.409 115.521 22.5706 115.325 22.776C115.129 22.9813 114.981 23.2256 114.891 23.4919C114.801 23.7583 114.771 24.0405 114.803 24.3191V29.8919H112.823L112.823 20.4964Z" fill="white"/>
<path d="M126.89 27.1323C126.624 28.8379 124.918 30.0084 122.735 30.0084C119.928 30.0084 118.186 28.1772 118.186 25.2392C118.186 22.2922 119.937 20.3809 122.652 20.3809C125.321 20.3809 127 22.1665 127 25.0153V25.676H120.185V25.7926C120.154 26.1383 120.198 26.4867 120.315 26.8144C120.433 27.1422 120.621 27.4419 120.866 27.6936C121.112 27.9453 121.409 28.1433 121.739 28.2743C122.07 28.4054 122.425 28.4666 122.781 28.4538C123.249 28.4965 123.719 28.391 124.12 28.1529C124.522 27.9148 124.833 27.5568 125.009 27.1323L126.89 27.1323ZM120.194 24.3282H125.019C125.036 24.0173 124.988 23.7061 124.876 23.4143C124.765 23.1225 124.592 22.8563 124.37 22.6323C124.148 22.4084 123.881 22.2317 123.585 22.1131C123.289 21.9946 122.971 21.9369 122.652 21.9436C122.329 21.9417 122.009 22.002 121.711 22.1211C121.413 22.2402 121.141 22.4156 120.913 22.6373C120.684 22.859 120.503 23.1226 120.38 23.4128C120.257 23.703 120.194 24.0141 120.194 24.3282V24.3282Z" fill="white"/>
<path d="M50.6223 7.30488C51.0375 7.27586 51.4542 7.33695 51.8423 7.48372C52.2304 7.63049 52.5802 7.85929 52.8664 8.15362C53.1527 8.44796 53.3683 8.80048 53.4977 9.18577C53.6271 9.57105 53.667 9.9795 53.6147 10.3816C53.6147 12.3599 52.5166 13.497 50.6223 13.497H48.3252V7.30488H50.6223ZM49.3129 12.6213H50.512C50.8087 12.6385 51.1056 12.5912 51.3812 12.4826C51.6567 12.374 51.904 12.207 52.1049 11.9937C52.3058 11.7804 52.4553 11.5261 52.5425 11.2494C52.6298 10.9727 52.6526 10.6806 52.6092 10.3943C52.6494 10.1091 52.6243 9.81872 52.5357 9.54406C52.4471 9.26941 52.2973 9.01723 52.0968 8.8056C51.8964 8.59397 51.6503 8.42813 51.3763 8.31996C51.1023 8.21179 50.8072 8.16397 50.512 8.17992H49.3129V12.6213Z" fill="white"/>
<path d="M54.7304 11.159C54.7003 10.8519 54.7363 10.542 54.8364 10.2493C54.9364 9.95659 55.0981 9.68746 55.3112 9.45917C55.5243 9.23088 55.7841 9.04848 56.0738 8.92367C56.3635 8.79885 56.6769 8.73438 56.9937 8.73438C57.3105 8.73438 57.6239 8.79885 57.9136 8.92367C58.2034 9.04848 58.4631 9.23088 58.6762 9.45917C58.8893 9.68746 59.0511 9.95659 59.1511 10.2493C59.2511 10.542 59.2872 10.8519 59.257 11.159C59.2877 11.4664 59.2521 11.7766 59.1523 12.0698C59.0526 12.363 58.8909 12.6326 58.6778 12.8614C58.4646 13.0901 58.2047 13.2729 57.9147 13.398C57.6246 13.5231 57.3109 13.5877 56.9937 13.5877C56.6765 13.5877 56.3628 13.5231 56.0728 13.398C55.7827 13.2729 55.5228 13.0901 55.3096 12.8614C55.0965 12.6326 54.9348 12.363 54.8351 12.0698C54.7353 11.7766 54.6997 11.4664 54.7304 11.159ZM58.2828 11.159C58.2828 10.146 57.8154 9.55369 56.9953 9.55369C56.172 9.55369 55.7088 10.146 55.7088 11.159C55.7088 12.18 56.172 12.7678 56.9953 12.7678C57.8155 12.7678 58.2828 12.1759 58.2828 11.159H58.2828Z" fill="white"/>
<path d="M65.2746 13.4971H64.2921L63.3002 10.0555H63.2252L62.2375 13.4971H61.2643L59.9414 8.82422H60.9021L61.7618 12.3899H61.8326L62.8193 8.82422H63.7279L64.7146 12.3899H64.7896L65.6451 8.82422H66.5923L65.2746 13.4971Z" fill="white"/>
<path d="M67.7051 8.82429H68.6168V9.56663H68.6876C68.8077 9.30001 69.0102 9.07651 69.2669 8.92727C69.5236 8.77804 69.8218 8.71051 70.1198 8.73409C70.3533 8.717 70.5878 8.75128 70.8059 8.8344C71.0239 8.91752 71.22 9.04735 71.3795 9.21426C71.539 9.38118 71.658 9.5809 71.7275 9.79864C71.7969 10.0164 71.8152 10.2466 71.781 10.4721V13.4972H70.8338V10.7037C70.8338 9.95275 70.4987 9.5793 69.7982 9.5793C69.6396 9.57211 69.4814 9.59838 69.3342 9.65632C69.1871 9.71426 69.0545 9.80249 68.9457 9.91497C68.8369 10.0274 68.7543 10.1615 68.7036 10.308C68.653 10.4544 68.6354 10.6098 68.6522 10.7635V13.4972H67.7051L67.7051 8.82429Z" fill="white"/>
<path d="M73.29 7H74.2372V13.4971H73.29V7Z" fill="white"/>
<path d="M75.5532 11.159C75.523 10.8519 75.5591 10.5421 75.6592 10.2493C75.7592 9.95662 75.921 9.68747 76.1341 9.45918C76.3472 9.23089 76.607 9.04849 76.8967 8.92367C77.1865 8.79885 77.4999 8.73438 77.8167 8.73438C78.1336 8.73438 78.4469 8.79885 78.7367 8.92367C79.0264 9.04849 79.2862 9.23089 79.4993 9.45918C79.7124 9.68747 79.8742 9.95662 79.9742 10.2493C80.0743 10.5421 80.1104 10.8519 80.0802 11.159C80.1109 11.4665 80.0753 11.7767 79.9755 12.0699C79.8757 12.3631 79.714 12.6327 79.5008 12.8615C79.2877 13.0902 79.0277 13.273 78.7377 13.398C78.4476 13.5231 78.1339 13.5877 77.8167 13.5877C77.4995 13.5877 77.1858 13.5231 76.8957 13.398C76.6057 13.273 76.3457 13.0902 76.1326 12.8615C75.9194 12.6327 75.7577 12.3631 75.6579 12.0699C75.5581 11.7767 75.5225 11.4665 75.5532 11.159ZM79.1055 11.159C79.1055 10.1461 78.6382 9.55377 77.818 9.55377C76.9947 9.55377 76.5316 10.1461 76.5316 11.159C76.5316 12.1801 76.9947 12.7679 77.818 12.7679C78.6382 12.7679 79.1055 12.176 79.1055 11.159H79.1055Z" fill="white"/>
<path d="M81.0781 12.176C81.0781 11.3348 81.7214 10.8499 82.8631 10.781L84.1631 10.708V10.3047C84.1631 9.81113 83.828 9.53245 83.1806 9.53245C82.6519 9.53245 82.2855 9.72145 82.1804 10.0518H81.2634C81.3602 9.24919 82.1356 8.73438 83.2243 8.73438C84.4275 8.73438 85.1061 9.31759 85.1061 10.3047V13.4975H84.1944V12.8408H84.1194C83.9673 13.0763 83.7537 13.2684 83.5005 13.3973C83.2472 13.5262 82.9633 13.5873 82.6779 13.5745C82.4764 13.5949 82.2728 13.5739 82.0801 13.513C81.8875 13.4521 81.7101 13.3526 81.5593 13.2208C81.4086 13.089 81.2879 12.928 81.205 12.748C81.1222 12.5681 81.0789 12.3732 81.0781 12.176ZM84.1631 11.7767V11.386L82.9912 11.459C82.3302 11.502 82.0305 11.7209 82.0305 12.1329C82.0305 12.5535 82.4052 12.7982 82.9204 12.7982C83.0714 12.8131 83.2239 12.7982 83.3688 12.7546C83.5138 12.7109 83.6482 12.6393 83.7642 12.544C83.8801 12.4486 83.9752 12.3316 84.0437 12.1998C84.1123 12.068 84.1529 11.9241 84.1631 11.7767Z" fill="white"/>
<path d="M86.3503 11.1586C86.3503 9.68205 87.1299 8.74666 88.3425 8.74666C88.6424 8.7332 88.9401 8.80315 89.2007 8.94832C89.4613 9.0935 89.6741 9.30791 89.8142 9.56648H89.885V7H90.8321V13.4971H89.9245V12.7588H89.8496C89.6987 13.0156 89.4785 13.2274 89.2128 13.3711C88.9472 13.5148 88.6462 13.585 88.3425 13.5741C87.1216 13.5741 86.3503 12.6387 86.3503 11.1586ZM87.3288 11.1586C87.3288 12.1498 87.8086 12.7462 88.6111 12.7462C89.4093 12.7462 89.9027 12.1411 89.9027 11.1627C89.9027 10.1888 89.4042 9.57513 88.6111 9.57513C87.8137 9.57513 87.3287 10.1756 87.3287 11.1586H87.3288Z" fill="white"/>
<path d="M94.7514 11.159C94.7213 10.8519 94.7573 10.542 94.8573 10.2493C94.9574 9.95659 95.1191 9.68746 95.3322 9.45917C95.5453 9.23088 95.8051 9.04848 96.0948 8.92367C96.3845 8.79885 96.6979 8.73438 97.0147 8.73438C97.3315 8.73438 97.6449 8.79885 97.9346 8.92367C98.2243 9.04848 98.4841 9.23088 98.6972 9.45917C98.9103 9.68746 99.072 9.95659 99.1721 10.2493C99.2721 10.542 99.3082 10.8519 99.278 11.159C99.3087 11.4664 99.2731 11.7766 99.1733 12.0698C99.0736 12.363 98.9119 12.6326 98.6988 12.8614C98.4856 13.0901 98.2257 13.2729 97.9356 13.398C97.6456 13.5231 97.3319 13.5877 97.0147 13.5877C96.6975 13.5877 96.3838 13.5231 96.0938 13.398C95.8037 13.2729 95.5438 13.0901 95.3306 12.8614C95.1175 12.6326 94.9558 12.363 94.8561 12.0698C94.7563 11.7766 94.7207 11.4664 94.7514 11.159ZM98.3038 11.159C98.3038 10.146 97.8364 9.55369 97.0163 9.55369C96.193 9.55369 95.7298 10.146 95.7298 11.159C95.7298 12.18 96.193 12.7678 97.0163 12.7678C97.8364 12.7678 98.3038 12.1759 98.3038 11.159Z" fill="white"/>
<path d="M100.548 8.82429H101.46V9.56663H101.531C101.651 9.30001 101.853 9.07651 102.11 8.92727C102.367 8.77804 102.665 8.71051 102.963 8.73409C103.197 8.717 103.431 8.75128 103.649 8.8344C103.867 8.91752 104.063 9.04735 104.223 9.21426C104.382 9.38118 104.501 9.5809 104.571 9.79864C104.64 10.0164 104.659 10.2466 104.624 10.4721V13.4972H103.677V10.7037C103.677 9.95275 103.342 9.5793 102.641 9.5793C102.483 9.57211 102.325 9.59838 102.177 9.65632C102.03 9.71426 101.898 9.80249 101.789 9.91497C101.68 10.0274 101.598 10.1615 101.547 10.308C101.496 10.4544 101.479 10.6098 101.495 10.7635V13.4972H100.548V8.82429Z" fill="white"/>
<path d="M109.976 7.66113V8.84583H111.016V9.62263H109.976V12.0255C109.976 12.5149 110.183 12.7293 110.655 12.7293C110.776 12.7289 110.896 12.7218 111.016 12.708V13.4762C110.846 13.5058 110.674 13.5216 110.501 13.5233C109.447 13.5233 109.028 13.1625 109.028 12.2616V9.62258H108.266V8.84579H109.028V7.66113H109.976Z" fill="white"/>
<path d="M112.31 7H113.248V9.57513H113.323C113.449 9.30602 113.657 9.08125 113.919 8.93145C114.181 8.78165 114.484 8.71411 114.787 8.73803C115.019 8.72573 115.251 8.76349 115.467 8.84863C115.682 8.93377 115.876 9.06418 116.034 9.23057C116.192 9.39697 116.31 9.59523 116.38 9.81122C116.45 10.0272 116.47 10.2556 116.44 10.4801V13.4971H115.491V10.7076C115.491 9.96123 115.134 9.58322 114.465 9.58322C114.302 9.57022 114.139 9.59201 113.985 9.64707C113.832 9.70212 113.693 9.78912 113.578 9.90196C113.463 10.0148 113.375 10.1508 113.319 10.3003C113.264 10.4499 113.242 10.6095 113.257 10.7679V13.4971H112.31L112.31 7Z" fill="white"/>
<path d="M121.963 12.2358C121.834 12.6629 121.555 13.0323 121.175 13.2795C120.795 13.5266 120.337 13.6357 119.883 13.5878C119.567 13.5959 119.253 13.5369 118.962 13.4149C118.672 13.293 118.412 13.1109 118.201 12.8815C117.99 12.652 117.833 12.3805 117.741 12.086C117.648 11.7915 117.623 11.4809 117.666 11.1758C117.624 10.8698 117.65 10.5585 117.742 10.2631C117.834 9.96769 117.99 9.69501 118.2 9.46351C118.41 9.23202 118.669 9.04712 118.958 8.92134C119.248 8.79555 119.562 8.73182 119.879 8.73445C121.214 8.73445 122.02 9.62277 122.02 11.0901V11.4119H118.631V11.4636C118.616 11.6351 118.638 11.8077 118.696 11.9704C118.753 12.133 118.845 12.2822 118.966 12.4082C119.086 12.5343 119.232 12.6344 119.395 12.7023C119.557 12.7702 119.732 12.8042 119.909 12.8023C120.136 12.8288 120.365 12.7891 120.568 12.6882C120.772 12.5873 120.94 12.4299 121.051 12.2358L121.963 12.2358ZM118.631 10.7299H121.055C121.067 10.5731 121.045 10.4155 120.991 10.2674C120.936 10.1193 120.851 9.98391 120.74 9.86991C120.628 9.7559 120.494 9.66582 120.345 9.60545C120.195 9.54508 120.035 9.51575 119.874 9.51936C119.71 9.51735 119.547 9.5473 119.395 9.60743C119.244 9.66756 119.106 9.75666 118.99 9.86948C118.874 9.9823 118.783 10.1165 118.721 10.2643C118.659 10.4121 118.629 10.5704 118.631 10.7299H118.631Z" fill="white"/>
</g>
<defs>
<clipPath id="clip0_116_142647">
<rect width="144" height="40" fill="white"/>
</clipPath>
</defs>
</svg>
