<svg width="144" height="40" viewBox="0 0 144 40" fill="none" xmlns="http://www.w3.org/2000/svg">
<path d="M134.605 0H8.33321C8.03179 0 7.73036 0 7.42627 0C6.76307 0.00964053 6.10149 0.0684687 5.447 0.176C4.79674 0.286098 4.16708 0.49472 3.57976 0.794667C2.989 1.0966 2.449 1.48888 1.97927 1.95733C1.50963 2.42602 1.11711 2.96603 0.816249 3.55733C0.512568 4.15282 0.302057 4.79136 0.192059 5.45067C0.0815056 6.10368 0.0226385 6.7644 0.0160049 7.42667C0 7.73333 0 8.032 0 8.336V31.6667C0 31.9733 0 32.272 0.0160049 32.5787C0.0228699 33.2409 0.0817354 33.9016 0.192059 34.5547C0.301104 35.2046 0.5089 35.8341 0.808247 36.4213C1.41335 37.6157 2.38059 38.5882 3.57176 39.2C4.15933 39.5005 4.78879 39.7108 5.439 39.824C6.09355 39.9307 6.75513 39.9886 7.41827 39.9973C7.72236 39.9973 8.02379 39.9973 8.32521 39.9973H135.667C135.968 39.9973 136.275 39.9973 136.576 39.9973C137.238 39.9892 137.898 39.9312 138.55 39.824C139.206 39.7104 139.842 39.5001 140.436 39.2C141.029 38.9012 141.569 38.5086 142.037 38.0373C142.509 37.5694 142.903 37.0293 143.205 36.4373C143.502 35.8494 143.708 35.2201 143.816 34.5707C143.926 33.9175 143.988 33.257 144 32.5947C144 32.288 144 31.9893 144 31.6827C144 31.3253 144 30.968 144 30.616V9.41333C144 9.05067 144 8.69333 144 8.34667C144 8.04267 144 7.73867 144 7.43733C143.988 6.775 143.926 6.11449 143.816 5.46133C143.706 4.81217 143.501 4.183 143.205 3.59467C142.601 2.39685 141.635 1.41924 140.444 0.8C139.85 0.50313 139.214 0.297275 138.558 0.189333C137.906 0.0812174 137.246 0.0223844 136.584 0.0133333C136.283 0.0133333 135.976 0.0133333 135.675 0.0133333L134.605 0Z" fill="#B6B6B6"/>
<path d="M9.06496 39C8.73971 39 8.4231 39 8.10073 39C7.43347 38.992 6.76775 38.9389 6.10896 38.8411C5.49575 38.7452 4.90123 38.5667 4.34457 38.3114C3.23861 37.7897 2.33781 36.9627 1.7685 35.9461C1.48833 35.4339 1.29423 34.8856 1.19285 34.3199C1.08279 33.7122 1.02409 33.0977 1.01727 32.4817C1.01727 32.2751 1 31.5865 1 31.5865V8.40824C1 8.40824 1 7.73019 1.01727 7.53154C1.02225 6.91472 1.07999 6.29922 1.18997 5.69074C1.29004 5.12299 1.48419 4.57274 1.76562 4.05918C2.04539 3.55383 2.41179 3.09325 2.85074 2.69513C3.28913 2.29129 3.79309 1.95263 4.34457 1.69129C4.89999 1.43543 5.49364 1.2569 6.10608 1.16157C6.76657 1.06161 7.4343 1.00761 8.10361 1H9.06496H134.978H135.951C136.615 1.00522 137.277 1.05836 137.932 1.15892C138.55 1.25229 139.15 1.43087 139.71 1.68865C140.819 2.21482 141.719 3.04885 142.284 4.07242C142.563 4.58207 142.757 5.12768 142.859 5.69074C142.97 6.30378 143.031 6.92345 143.043 7.54478C143.043 7.82289 143.043 8.12219 143.043 8.41883C143.043 8.78699 143.043 9.13661 143.043 9.47829V30.5085C143.043 30.866 143.043 31.213 143.043 31.5679C143.043 31.9228 143.043 32.1798 143.043 32.4817C143.033 33.0907 142.972 33.6981 142.862 34.2987C142.764 34.8685 142.569 35.4207 142.286 35.9355C141.715 36.9482 140.816 37.7728 139.713 38.2955C139.154 38.5536 138.555 38.7322 137.937 38.8252C137.279 38.9236 136.613 38.9767 135.946 38.9841C135.635 38.9841 135.307 38.9841 134.99 38.9841H9.06496V39Z" fill="url(#paint0_linear_116_142711)"/>
<path fill-rule="evenodd" clip-rule="evenodd" d="M29.554 5H16.4428C10.2615 5 8 7.26105 8 13.4411V26.5589C8 32.7389 10.2615 35 16.4428 35H29.554C35.7353 35 38 32.7389 38 26.5589V13.4411C38.0063 7.26105 35.7448 5 29.554 5Z" fill="#62C9A9"/>
<path fill-rule="evenodd" clip-rule="evenodd" d="M29.1402 11.2318C29.5645 11.5854 29.6218 12.2159 29.2682 12.6402C28.316 13.7828 26.5426 15.1367 24.246 15.5353C21.89 15.9442 19.1249 15.3224 16.3217 12.7348C15.9159 12.3602 15.8906 11.7276 16.2652 11.3217C16.6398 10.9159 17.2725 10.8906 17.6783 11.2652C20.0751 13.4777 22.2267 13.8559 23.904 13.5648C25.6408 13.2633 27.0173 12.2172 27.7318 11.3598C28.0853 10.9356 28.7159 10.8782 29.1402 11.2318Z" fill="white"/>
<path d="M23 21C23 19.6193 24.1193 18.5 25.5 18.5C26.8807 18.5 28 19.6193 28 21C28 22.3807 26.8807 23.5 25.5 23.5H23V21Z" fill="white"/>
<path d="M23 27C23 28.3807 24.1193 29.5 25.5 29.5C26.8807 29.5 28 28.3807 28 27C28 25.6193 26.8807 24.5 25.5 24.5H23V27Z" fill="#E0F4EE"/>
<path d="M22 21C22 19.6193 20.8807 18.5 19.5 18.5C18.1193 18.5 17 19.6193 17 21C17 22.3807 18.1193 23.5 19.5 23.5H22V21Z" fill="#A1DFCB"/>
<path d="M22 27C22 28.3807 20.8807 29.5 19.5 29.5C18.1193 29.5 17 28.3807 17 27C17 25.6193 18.1193 24.5 19.5 24.5H22V27Z" fill="#C0E9DD"/>
<path d="M50 14.2099L52.8326 7H53.8841L56.9028 14.2099H55.7909L54.9306 12.0263H51.8465L51.0364 14.2099H50ZM52.1282 11.2492H54.6287L53.8589 9.25247C53.6241 8.64591 53.4497 8.14755 53.3357 7.75738C53.2418 8.21968 53.1093 8.6787 52.9382 9.13444L52.1282 11.2492Z" fill="#BBBEBD"/>
<path d="M58.86 14.2099L56.8274 8.9869H57.7833L58.9304 12.1148C59.0545 12.4525 59.1685 12.8033 59.2725 13.1672C59.353 12.8918 59.4654 12.5607 59.6096 12.1738L60.797 8.9869H61.7277L59.7052 14.2099H58.86Z" fill="#BBBEBD"/>
<path d="M66.0143 13.5656C65.6789 13.8443 65.3553 14.041 65.0433 14.1558C64.7347 14.2705 64.4027 14.3279 64.0471 14.3279C63.4602 14.3279 63.009 14.1886 62.6937 13.9099C62.3785 13.6279 62.2208 13.2689 62.2208 12.8328C62.2208 12.5771 62.2795 12.3443 62.3969 12.1345C62.5177 11.9213 62.6736 11.7508 62.8648 11.623C63.0593 11.4951 63.2774 11.3984 63.5189 11.3328C63.6966 11.2869 63.965 11.2426 64.3239 11.2C65.0551 11.1148 65.5934 11.0131 65.9389 10.8951C65.9422 10.7738 65.9439 10.6967 65.9439 10.664C65.9439 10.3033 65.8584 10.0492 65.6873 9.90166C65.4559 9.70166 65.1121 9.60165 64.6559 9.60165C64.2299 9.60165 63.9146 9.67543 63.71 9.82297C63.5088 9.96723 63.3595 10.2246 63.2623 10.5951L62.3768 10.4771C62.4573 10.1066 62.5898 9.80821 62.7742 9.58198C62.9587 9.35247 63.2254 9.17706 63.5742 9.05575C63.923 8.93116 64.3272 8.86886 64.7867 8.86886C65.2429 8.86886 65.6135 8.92132 65.8986 9.02624C66.1837 9.13116 66.3934 9.26395 66.5275 9.4246C66.6617 9.58198 66.7556 9.78198 66.8093 10.0246C66.8395 10.1754 66.8546 10.4476 66.8546 10.841V12.0213C66.8546 12.8443 66.873 13.3656 66.9099 13.5853C66.9501 13.8017 67.0273 14.0099 67.1413 14.2099H66.1955C66.1015 14.0263 66.0412 13.8115 66.0143 13.5656ZM65.9389 11.5886C65.6102 11.7197 65.1171 11.8312 64.4597 11.923C64.0874 11.9754 63.8241 12.0345 63.6698 12.1C63.5155 12.1656 63.3964 12.2623 63.3126 12.3902C63.2287 12.5148 63.1868 12.6541 63.1868 12.8082C63.1868 13.0443 63.2774 13.241 63.4585 13.3984C63.643 13.5558 63.9113 13.6345 64.2635 13.6345C64.6123 13.6345 64.9226 13.5607 65.1943 13.4132C65.4659 13.2623 65.6655 13.0574 65.793 12.7984C65.8902 12.5984 65.9389 12.3033 65.9389 11.9131V11.5886Z" fill="#BBBEBD"/>
<path d="M68.2683 8.01804V7H69.1739V8.01804H68.2683ZM68.2683 14.2099V8.9869H69.1739V14.2099H68.2683Z" fill="#BBBEBD"/>
<path d="M70.5374 14.2099V7H71.443V14.2099H70.5374Z" fill="#BBBEBD"/>
<path d="M76.3384 13.5656C76.003 13.8443 75.6793 14.041 75.3674 14.1558C75.0588 14.2705 74.7267 14.3279 74.3712 14.3279C73.7842 14.3279 73.3331 14.1886 73.0178 13.9099C72.7025 13.6279 72.5449 13.2689 72.5449 12.8328C72.5449 12.5771 72.6035 12.3443 72.7209 12.1345C72.8417 11.9213 72.9977 11.7508 73.1888 11.623C73.3834 11.4951 73.6014 11.3984 73.8429 11.3328C74.0207 11.2869 74.289 11.2426 74.6479 11.2C75.3791 11.1148 75.9174 11.0131 76.2629 10.8951C76.2663 10.7738 76.2679 10.6967 76.2679 10.664C76.2679 10.3033 76.1824 10.0492 76.0114 9.90166C75.7799 9.70166 75.4361 9.60165 74.98 9.60165C74.554 9.60165 74.2387 9.67543 74.0341 9.82297C73.8328 9.96723 73.6836 10.2246 73.5863 10.5951L72.7008 10.4771C72.7813 10.1066 72.9138 9.80821 73.0983 9.58198C73.2828 9.35247 73.5494 9.17706 73.8982 9.05575C74.2471 8.93116 74.6513 8.86886 75.1108 8.86886C75.5669 8.86886 75.9376 8.92132 76.2227 9.02624C76.5078 9.13116 76.7174 9.26395 76.8516 9.4246C76.9857 9.58198 77.0796 9.78198 77.1333 10.0246C77.1635 10.1754 77.1786 10.4476 77.1786 10.841V12.0213C77.1786 12.8443 77.197 13.3656 77.2339 13.5853C77.2742 13.8017 77.3513 14.0099 77.4654 14.2099H76.5195C76.4256 14.0263 76.3652 13.8115 76.3384 13.5656ZM76.2629 11.5886C75.9342 11.7197 75.4412 11.8312 74.7837 11.923C74.4114 11.9754 74.1481 12.0345 73.9938 12.1C73.8396 12.1656 73.7205 12.2623 73.6366 12.3902C73.5528 12.5148 73.5108 12.6541 73.5108 12.8082C73.5108 13.0443 73.6014 13.241 73.7825 13.3984C73.967 13.5558 74.2353 13.6345 74.5875 13.6345C74.9364 13.6345 75.2466 13.5607 75.5183 13.4132C75.79 13.2623 75.9896 13.0574 76.117 12.7984C76.2143 12.5984 76.2629 12.3033 76.2629 11.9131V11.5886Z" fill="#BBBEBD"/>
<path d="M79.4225 14.2099H78.5823V7H79.4879V9.57215C79.8703 9.10329 80.3583 8.86886 80.952 8.86886C81.2807 8.86886 81.591 8.93444 81.8828 9.06559C82.1779 9.19346 82.4194 9.37542 82.6073 9.61149C82.7985 9.84428 82.9477 10.1262 83.055 10.4574C83.1624 10.7885 83.216 11.1426 83.216 11.5197C83.216 12.4148 82.9896 13.1066 82.5368 13.5951C82.084 14.0836 81.5407 14.3279 80.9067 14.3279C80.2761 14.3279 79.7814 14.0705 79.4225 13.5558V14.2099ZM79.4125 11.559C79.4125 12.1853 79.4997 12.6377 79.6741 12.9164C79.9592 13.3722 80.3449 13.6 80.8313 13.6C81.227 13.6 81.5692 13.4328 81.8576 13.0984C82.1461 12.7607 82.2903 12.259 82.2903 11.5935C82.2903 10.9115 82.1511 10.4082 81.8727 10.0836C81.5977 9.75903 81.2639 9.59674 80.8715 9.59674C80.4757 9.59674 80.1336 9.76559 79.8451 10.1033C79.5567 10.4377 79.4125 10.923 79.4125 11.559Z" fill="#BBBEBD"/>
<path d="M84.3028 14.2099V7H85.2084V14.2099H84.3028Z" fill="#BBBEBD"/>
<path d="M90.2748 12.5279L91.2106 12.641C91.0631 13.1754 90.7897 13.5902 90.3906 13.8853C89.9914 14.1804 89.4816 14.3279 88.8611 14.3279C88.0796 14.3279 87.459 14.0935 86.9995 13.6246C86.5434 13.1525 86.3153 12.4918 86.3153 11.6427C86.3153 10.764 86.5467 10.082 87.0096 9.59674C87.4725 9.11149 88.0728 8.86886 88.8108 8.86886C89.5252 8.86886 90.1088 9.10657 90.5616 9.58198C91.0144 10.0574 91.2408 10.7263 91.2408 11.5886C91.2408 11.641 91.2392 11.7197 91.2358 11.8246H87.2511C87.2846 12.3984 87.4506 12.8377 87.7492 13.1427C88.0477 13.4476 88.42 13.6 88.8661 13.6C89.1982 13.6 89.4816 13.5148 89.7164 13.3443C89.9512 13.1738 90.1373 12.9017 90.2748 12.5279ZM87.3014 11.0967H90.2849C90.2446 10.6574 90.1306 10.3279 89.9428 10.1082C89.6543 9.76723 89.2803 9.59674 88.8208 9.59674C88.4049 9.59674 88.0544 9.7328 87.7693 10.0049C87.4875 10.2771 87.3316 10.641 87.3014 11.0967Z" fill="#BBBEBD"/>
<path d="M94.8834 11.5984C94.8834 10.6312 95.1585 9.91477 95.7085 9.44919C96.1681 9.06231 96.7282 8.86886 97.389 8.86886C98.1235 8.86886 98.7239 9.10493 99.1901 9.57706C99.6564 10.0459 99.8895 10.6951 99.8895 11.5246C99.8895 12.1968 99.7855 12.7263 99.5775 13.1132C99.3729 13.4968 99.0727 13.7951 98.677 14.0082C98.2845 14.2214 97.8552 14.3279 97.389 14.3279C96.641 14.3279 96.0356 14.0935 95.5727 13.6246C95.1132 13.1558 94.8834 12.4804 94.8834 11.5984ZM95.8142 11.5984C95.8142 12.2672 95.9635 12.7689 96.262 13.1033C96.5605 13.4345 96.9362 13.6 97.389 13.6C97.8384 13.6 98.2124 13.4328 98.5109 13.0984C98.8094 12.764 98.9587 12.2541 98.9587 11.5689C98.9587 10.923 98.8078 10.4344 98.5059 10.1033C98.2074 9.76887 97.8351 9.60165 97.389 9.60165C96.9362 9.60165 96.5605 9.76723 96.262 10.0984C95.9635 10.4295 95.8142 10.9295 95.8142 11.5984Z" fill="#BBBEBD"/>
<path d="M100.956 14.2099V8.9869H101.771V9.72952C102.164 9.15575 102.73 8.86886 103.472 8.86886C103.794 8.86886 104.089 8.92624 104.357 9.041C104.629 9.15247 104.832 9.30001 104.966 9.48362C105.1 9.66723 105.194 9.88526 105.248 10.1377C105.281 10.3017 105.298 10.5885 105.298 10.9984V14.2099H104.392V11.0328C104.392 10.6722 104.357 10.4033 104.287 10.2262C104.216 10.0459 104.091 9.9033 103.909 9.79838C103.732 9.69018 103.522 9.63608 103.281 9.63608C102.895 9.63608 102.561 9.75575 102.279 9.9951C102.001 10.2344 101.862 10.6885 101.862 11.3574V14.2099H100.956Z" fill="#BBBEBD"/>
<path d="M111.537 13.4181L111.668 14.2C111.413 14.2525 111.185 14.2787 110.983 14.2787C110.655 14.2787 110.4 14.2279 110.219 14.1263C110.037 14.0246 109.91 13.8918 109.836 13.7279C109.762 13.5607 109.725 13.2115 109.725 12.6804V9.67543H109.061V8.9869H109.725V7.69345L110.626 7.1623V8.9869H111.537V9.67543H110.626V12.7295C110.626 12.982 110.641 13.1443 110.671 13.2164C110.705 13.2886 110.757 13.3459 110.827 13.3886C110.901 13.4312 111.005 13.4525 111.139 13.4525C111.24 13.4525 111.372 13.441 111.537 13.4181Z" fill="#BBBEBD"/>
<path d="M112.427 14.2099V7H113.333V9.5869C113.755 9.10821 114.289 8.86886 114.933 8.86886C115.329 8.86886 115.672 8.94591 115.964 9.10001C116.256 9.25083 116.464 9.46067 116.588 9.72952C116.716 9.99838 116.779 10.3885 116.779 10.9V14.2099H115.874V10.9C115.874 10.4574 115.775 10.1361 115.577 9.93608C115.382 9.7328 115.106 9.63116 114.747 9.63116C114.478 9.63116 114.225 9.70002 113.987 9.83772C113.752 9.97215 113.584 10.1558 113.484 10.3885C113.383 10.6213 113.333 10.9426 113.333 11.3525V14.2099H112.427Z" fill="#BBBEBD"/>
<path d="M121.821 12.5279L122.756 12.641C122.609 13.1754 122.335 13.5902 121.936 13.8853C121.537 14.1804 121.027 14.3279 120.407 14.3279C119.625 14.3279 119.005 14.0935 118.545 13.6246C118.089 13.1525 117.861 12.4918 117.861 11.6427C117.861 10.764 118.092 10.082 118.555 9.59674C119.018 9.11149 119.619 8.86886 120.356 8.86886C121.071 8.86886 121.654 9.10657 122.107 9.58198C122.56 10.0574 122.787 10.7263 122.787 11.5886C122.787 11.641 122.785 11.7197 122.781 11.8246H118.797C118.83 12.3984 118.996 12.8377 119.295 13.1427C119.593 13.4476 119.966 13.6 120.412 13.6C120.744 13.6 121.027 13.5148 121.262 13.3443C121.497 13.1738 121.683 12.9017 121.821 12.5279ZM118.847 11.0967H121.831C121.79 10.6574 121.676 10.3279 121.488 10.1082C121.2 9.76723 120.826 9.59674 120.367 9.59674C119.951 9.59674 119.6 9.7328 119.315 10.0049C119.033 10.2771 118.877 10.641 118.847 11.0967Z" fill="#BBBEBD"/>
<path d="M60.8327 30.0312H58.4614L57.5188 27.5845H53.2034L52.3123 30.0312H50L54.2049 19.2598H56.5099L60.8327 30.0312ZM56.8192 25.7697L55.3317 21.7726L53.8736 25.7697H56.8192Z" fill="white"/>
<path d="M61.9226 22.2282H63.852V23.3744C64.1024 22.9825 64.4411 22.6641 64.8683 22.4192C65.2954 22.1743 65.7691 22.0518 66.2895 22.0518C67.1978 22.0518 67.9686 22.4069 68.6019 23.1172C69.2352 23.8275 69.5519 24.8169 69.5519 26.0856C69.5519 27.3886 69.2327 28.4025 68.5945 29.1275C67.9563 29.8475 67.1831 30.2076 66.2748 30.2076C65.8428 30.2076 65.45 30.1218 65.0965 29.9504C64.748 29.7789 64.3798 29.485 63.9919 29.0687V32.9996H61.9226V22.2282ZM63.9698 25.9974C63.9698 26.8742 64.1441 27.5233 64.4927 27.9445C64.8413 28.3609 65.2659 28.5691 65.7667 28.5691C66.2478 28.5691 66.6479 28.378 66.967 27.996C67.2862 27.609 67.4457 26.9771 67.4457 26.1003C67.4457 25.2823 67.2812 24.6749 66.9523 24.2781C66.6234 23.8813 66.2159 23.683 65.7299 23.683C65.2242 23.683 64.8044 23.8789 64.4706 24.2708C64.1367 24.6577 63.9698 25.2333 63.9698 25.9974Z" fill="white"/>
<path d="M71.1425 22.2282H73.0719V23.3744C73.3223 22.9825 73.6611 22.6641 74.0882 22.4192C74.5153 22.1743 74.9891 22.0518 75.5095 22.0518C76.4177 22.0518 77.1885 22.4069 77.8218 23.1172C78.4551 23.8275 78.7718 24.8169 78.7718 26.0856C78.7718 27.3886 78.4527 28.4025 77.8145 29.1275C77.1762 29.8475 76.403 30.2076 75.4947 30.2076C75.0627 30.2076 74.67 30.1218 74.3165 29.9504C73.9679 29.7789 73.5997 29.485 73.2119 29.0687V32.9996H71.1425V22.2282ZM73.1898 25.9974C73.1898 26.8742 73.364 27.5233 73.7126 27.9445C74.0612 28.3609 74.4859 28.5691 74.9866 28.5691C75.4677 28.5691 75.8679 28.378 76.187 27.996C76.5061 27.609 76.6656 26.9771 76.6656 26.1003C76.6656 25.2823 76.5012 24.6749 76.1722 24.2781C75.8433 23.8813 75.4358 23.683 74.9498 23.683C74.4441 23.683 74.0244 23.8789 73.6905 24.2708C73.3567 24.6577 73.1898 25.2333 73.1898 25.9974Z" fill="white"/>
<path d="M84.6042 30.0312V19.2598H87.8665L89.8254 26.6073L91.7622 19.2598H95.0319V30.0312H93.0067V21.5522L90.8638 30.0312H88.765L86.6294 21.5522V30.0312H84.6042Z" fill="white"/>
<path d="M98.7287 24.6088L96.8508 24.2708C97.0619 23.5164 97.4252 22.958 97.9407 22.5955C98.4562 22.2331 99.2221 22.0518 100.238 22.0518C101.161 22.0518 101.849 22.162 102.3 22.3825C102.752 22.598 103.069 22.8747 103.25 23.2127C103.437 23.5458 103.53 24.1606 103.53 25.0569L103.508 27.4669C103.508 28.1527 103.54 28.6597 103.604 28.9879C103.673 29.3112 103.798 29.6589 103.979 30.0312H101.932C101.878 29.8941 101.812 29.6908 101.733 29.4214C101.699 29.2989 101.674 29.2181 101.66 29.1789C101.306 29.5218 100.928 29.7789 100.526 29.9504C100.123 30.1218 99.6934 30.2076 99.2368 30.2076C98.4317 30.2076 97.7959 29.9896 97.3295 29.5536C96.868 29.1177 96.6373 28.5666 96.6373 27.9004C96.6373 27.4596 96.7428 27.0677 96.9539 26.7248C97.165 26.3771 97.4596 26.1125 97.8376 25.9313C98.2206 25.7452 98.7704 25.5835 99.4872 25.4464C100.454 25.2651 101.125 25.0961 101.498 24.9394V24.7337C101.498 24.3369 101.399 24.0552 101.203 23.8887C101.007 23.7173 100.636 23.6315 100.091 23.6315C99.7229 23.6315 99.4357 23.705 99.2295 23.852C99.0233 23.994 98.8563 24.2463 98.7287 24.6088ZM101.498 26.284C101.233 26.3722 100.813 26.4775 100.238 26.5999C99.6639 26.7224 99.2884 26.8424 99.1116 26.96C98.8416 27.151 98.7066 27.3935 98.7066 27.6874C98.7066 27.9764 98.8146 28.2262 99.0306 28.4368C99.2466 28.6474 99.5216 28.7527 99.8554 28.7527C100.229 28.7527 100.584 28.6303 100.923 28.3854C101.174 28.1992 101.338 27.9715 101.417 27.7021C101.471 27.5257 101.498 27.1902 101.498 26.6954V26.284Z" fill="white"/>
<path d="M107.558 30.0312H105.489V22.2282H107.411V23.3376C107.74 22.8135 108.035 22.4682 108.295 22.3016C108.56 22.1351 108.859 22.0518 109.193 22.0518C109.664 22.0518 110.119 22.1816 110.556 22.4412L109.915 24.2414C109.566 24.0161 109.242 23.9034 108.943 23.9034C108.653 23.9034 108.408 23.9842 108.206 24.1459C108.005 24.3026 107.846 24.5892 107.728 25.0055C107.615 25.4219 107.558 26.2938 107.558 27.6212V30.0312Z" fill="white"/>
<path d="M111.38 30.0312V19.2598H113.45V24.9761L115.872 22.2282H118.42L115.747 25.079L118.612 30.0312H116.381L114.414 26.5264L113.45 27.5331V30.0312H111.38Z" fill="white"/>
<path d="M124.378 27.5478L126.44 27.8931C126.175 28.6474 125.755 29.223 125.181 29.6198C124.611 30.0116 123.897 30.2076 123.038 30.2076C121.678 30.2076 120.671 29.7643 120.019 28.8777C119.503 28.1674 119.245 27.271 119.245 26.1885C119.245 24.8953 119.584 23.8838 120.262 23.1539C120.939 22.4192 121.796 22.0518 122.832 22.0518C123.995 22.0518 124.913 22.4363 125.586 23.2054C126.258 23.9695 126.58 25.1427 126.551 26.7248H121.366C121.381 27.3371 121.548 27.8147 121.867 28.1576C122.186 28.4956 122.584 28.6646 123.06 28.6646C123.384 28.6646 123.656 28.5764 123.877 28.4001C124.098 28.2237 124.265 27.9396 124.378 27.5478ZM124.496 25.4611C124.481 24.8635 124.327 24.4104 124.032 24.1018C123.737 23.7883 123.379 23.6315 122.957 23.6315C122.505 23.6315 122.132 23.7956 121.837 24.1238C121.543 24.452 121.398 24.8978 121.403 25.4611H124.496Z" fill="white"/>
<path d="M131.831 22.2282V23.874H130.417V27.0187C130.417 27.6555 130.429 28.0278 130.454 28.1356C130.483 28.2384 130.544 28.3241 130.638 28.3927C130.736 28.4613 130.854 28.4956 130.991 28.4956C131.183 28.4956 131.46 28.4295 131.823 28.2972L132 29.899C131.519 30.1047 130.974 30.2076 130.365 30.2076C129.992 30.2076 129.656 30.1463 129.356 30.0239C129.057 29.8965 128.836 29.7349 128.693 29.5389C128.556 29.3381 128.46 29.0687 128.406 28.7307C128.362 28.4907 128.34 28.0057 128.34 27.2759V23.874H127.39V22.2282H128.34V20.6778L130.417 19.4728V22.2282H131.831Z" fill="white"/>
<defs>
<linearGradient id="paint0_linear_116_142711" x1="83.0251" y1="39.0002" x2="92.0224" y2="-49.5004" gradientUnits="userSpaceOnUse">
<stop offset="0.242966" stop-color="#231F20"/>
<stop offset="1" stop-color="#62C9A9"/>
</linearGradient>
</defs>
</svg>
