<svg width="144" height="40" viewBox="0 0 144 40" fill="none" xmlns="http://www.w3.org/2000/svg">
<g clip-path="url(#clip0_116_142679)">
<path d="M134.605 0H8.33321C8.03179 0 7.73036 0 7.42627 0C6.76307 0.00964053 6.10149 0.0684687 5.447 0.176C4.79674 0.286098 4.16708 0.49472 3.57976 0.794667C2.989 1.0966 2.449 1.48888 1.97927 1.95733C1.50963 2.42602 1.11711 2.96603 0.816249 3.55733C0.512568 4.15282 0.302057 4.79136 0.192059 5.45067C0.0815056 6.10368 0.0226385 6.7644 0.0160049 7.42667C0 7.73333 0 8.032 0 8.336V31.6667C0 31.9733 0 32.272 0.0160049 32.5787C0.0228699 33.2409 0.0817354 33.9016 0.192059 34.5547C0.301104 35.2046 0.5089 35.8341 0.808247 36.4213C1.41335 37.6157 2.38059 38.5882 3.57176 39.2C4.15933 39.5005 4.78879 39.7108 5.439 39.824C6.09355 39.9307 6.75513 39.9886 7.41827 39.9973C7.72236 39.9973 8.02379 39.9973 8.32521 39.9973H135.667C135.968 39.9973 136.275 39.9973 136.576 39.9973C137.238 39.9892 137.898 39.9312 138.55 39.824C139.206 39.7104 139.842 39.5001 140.436 39.2C141.029 38.9012 141.569 38.5086 142.037 38.0373C142.509 37.5694 142.903 37.0293 143.205 36.4373C143.502 35.8494 143.708 35.2201 143.816 34.5707C143.926 33.9175 143.988 33.257 144 32.5947C144 32.288 144 31.9893 144 31.6827C144 31.3253 144 30.968 144 30.616V9.41333C144 9.05067 144 8.69333 144 8.34667C144 8.04267 144 7.73867 144 7.43733C143.988 6.775 143.926 6.11449 143.816 5.46133C143.706 4.81217 143.501 4.183 143.205 3.59467C142.601 2.39685 141.635 1.41924 140.444 0.8C139.85 0.50313 139.214 0.297275 138.558 0.189333C137.906 0.0812174 137.246 0.0223844 136.584 0.0133333C136.283 0.0133333 135.976 0.0133333 135.675 0.0133333L134.605 0Z" fill="#B6B6B6"/>
<path d="M9.06496 39C8.73971 39 8.4231 39 8.10073 39C7.43347 38.992 6.76775 38.9389 6.10896 38.8411C5.49575 38.7452 4.90123 38.5667 4.34457 38.3114C3.23861 37.7897 2.33781 36.9627 1.7685 35.9461C1.48833 35.4339 1.29423 34.8856 1.19285 34.3199C1.08279 33.7122 1.02409 33.0977 1.01727 32.4817C1.01727 32.2751 1 31.5865 1 31.5865V8.40824C1 8.40824 1 7.73019 1.01727 7.53154C1.02225 6.91472 1.07999 6.29922 1.18997 5.69074C1.29004 5.12299 1.48419 4.57274 1.76562 4.05918C2.04539 3.55383 2.41179 3.09325 2.85074 2.69513C3.28913 2.29129 3.79309 1.95263 4.34457 1.69129C4.89999 1.43543 5.49364 1.2569 6.10608 1.16157C6.76657 1.06161 7.4343 1.00761 8.10361 1H9.06496H134.978H135.951C136.615 1.00522 137.277 1.05836 137.932 1.15892C138.55 1.25229 139.15 1.43087 139.71 1.68865C140.819 2.21482 141.719 3.04885 142.284 4.07242C142.563 4.58207 142.757 5.12768 142.859 5.69074C142.97 6.30378 143.031 6.92345 143.043 7.54478C143.043 7.82289 143.043 8.12219 143.043 8.41883C143.043 8.78699 143.043 9.13661 143.043 9.47829V30.5085C143.043 30.866 143.043 31.213 143.043 31.5679C143.043 31.9228 143.043 32.1798 143.043 32.4817C143.033 33.0907 142.972 33.6981 142.862 34.2987C142.764 34.8685 142.569 35.4207 142.286 35.9355C141.715 36.9482 140.816 37.7728 139.713 38.2955C139.154 38.5536 138.555 38.7322 137.937 38.8252C137.279 38.9236 136.613 38.9767 135.946 38.9841C135.635 38.9841 135.307 38.9841 134.99 38.9841H9.06496V39Z" fill="black"/>
<path d="M57.7886 26.3706H53.1586L52.0347 29.434H50L54.5273 17.9893H56.4488L61.0788 29.434H58.9494L57.7886 26.3706ZM53.7482 24.805H57.1964L55.9619 21.5276C55.7934 21.0762 55.6249 20.5752 55.4618 20.0272C55.3117 20.5125 55.1485 21.0057 54.9748 21.5119L53.7482 24.805Z" fill="white"/>
<path d="M61.8974 22.9961C61.8974 22.3646 61.8763 21.6688 61.8342 20.9086H63.6767C63.746 21.2664 63.7934 21.628 63.8189 21.9915C64.1413 21.6084 64.5434 21.2991 64.9978 21.0847C65.4521 20.8703 65.9479 20.7559 66.4511 20.7494C67.041 20.7401 67.6204 20.9055 68.115 21.2244C68.6097 21.5433 68.9972 22.0011 69.228 22.5394C69.5518 23.2795 69.7055 24.0817 69.6781 24.8879C69.6981 25.7669 69.5182 26.6392 69.1517 27.4399C68.845 28.1044 68.3444 28.6625 67.7145 29.042C67.0664 29.4133 66.3282 29.6019 65.5798 29.5874C64.9909 29.587 64.4062 29.4882 63.8505 29.2951V32.8256L61.8816 32.9926L61.8974 22.9961ZM67.0722 27.3459C67.4723 26.824 67.675 26.0412 67.675 24.9975C67.675 24.0459 67.5083 23.3501 67.1749 22.91C67.0243 22.7054 66.8258 22.5402 66.5966 22.4284C66.3674 22.3166 66.1142 22.2615 65.8588 22.2681C65.491 22.2632 65.1282 22.3531 64.8059 22.529C64.4636 22.7212 64.1522 22.9631 63.8821 23.2466V27.813C64.1002 27.915 64.33 27.9903 64.5664 28.0374C64.8207 28.092 65.0801 28.1199 65.3403 28.1209C65.6707 28.1405 66.001 28.0802 66.3027 27.9452C66.6044 27.8102 66.8685 27.6046 67.0722 27.3459Z" fill="white"/>
<path d="M70.8757 22.9961C70.8757 22.3646 70.8546 21.6688 70.8125 20.9086H72.655C72.7264 21.2661 72.7748 21.6278 72.7998 21.9915C73.5666 21.1634 74.444 20.7494 75.4319 20.7494C76.0219 20.7401 76.6013 20.9055 77.0959 21.2244C77.5906 21.5433 77.9781 22.0011 78.2089 22.5394C78.5327 23.2795 78.6864 24.0817 78.659 24.8879C78.6831 25.7659 78.5077 26.6381 78.1457 27.4399C77.8384 28.1048 77.3368 28.6629 76.7059 29.042C76.0579 29.4137 75.3197 29.6023 74.5712 29.5874C73.9823 29.587 73.3977 29.4882 72.8419 29.2951V32.8256L70.873 32.9926L70.8757 22.9961ZM76.0584 27.3459C76.4585 26.8119 76.6585 26.0291 76.6585 24.9975C76.6585 24.0459 76.4927 23.3501 76.1611 22.91C76.0104 22.7054 75.812 22.5402 75.5827 22.4284C75.3535 22.3166 75.1004 22.2615 74.845 22.2681C74.4772 22.2637 74.1145 22.3535 73.7921 22.529C73.4498 22.7212 73.1384 22.9631 72.8682 23.2466V27.813C73.0867 27.9142 73.3164 27.9895 73.5526 28.0374C73.8069 28.092 74.0663 28.1199 74.3264 28.1209C74.6568 28.1401 74.987 28.0796 75.2886 27.9446C75.5902 27.8097 75.8544 27.6042 76.0584 27.3459Z" fill="white"/>
<path d="M82.2783 28.8936C81.4372 28.4363 80.754 27.739 80.3173 26.8922C79.8401 25.9353 79.6052 24.8776 79.633 23.8105C79.5988 22.6688 79.8714 21.5387 80.4226 20.5357C80.9204 19.6654 81.6681 18.9614 82.5705 18.5134C83.5189 18.0541 84.5631 17.8225 85.6186 17.8376C86.2586 17.8349 86.8967 17.9084 87.519 18.0568C88.101 18.1926 88.666 18.3922 89.2036 18.6517L88.6929 20.1521C87.7618 19.6865 86.7375 19.4333 85.6949 19.4111C84.9589 19.3989 84.2327 19.5789 83.5891 19.9329C82.9785 20.2805 82.4877 20.8024 82.1809 21.4307C81.8281 22.1759 81.6568 22.9929 81.6808 23.8157C81.6677 24.5571 81.7982 25.2941 82.0651 25.9867C82.3075 26.5998 82.7338 27.1244 83.2864 27.4897C83.9161 27.8803 84.6501 28.0731 85.3922 28.0429C85.7767 28.042 86.1606 28.0097 86.5398 27.9464C86.9068 27.8885 87.2673 27.7959 87.6164 27.6698V25.3422H84.9473V23.8261H89.53V28.6509C88.8651 28.9581 88.1688 29.1934 87.4532 29.3528C86.7435 29.5149 86.0177 29.5972 85.2895 29.5981C84.2415 29.6231 83.2045 29.3804 82.2783 28.8936Z" fill="white"/>
<path d="M96.5236 29.4342C96.4492 29.0615 96.4034 28.6838 96.3868 28.3043C96.058 28.6836 95.6562 28.994 95.2049 29.2176C94.6955 29.4734 94.1308 29.6024 93.5598 29.5933C93.0926 29.5992 92.6301 29.5002 92.2069 29.3037C91.8043 29.1165 91.4678 28.8138 91.2409 28.4348C90.9894 28.0052 90.8645 27.5143 90.8803 27.0179C90.8655 26.6413 90.9394 26.2666 91.0961 25.9232C91.2528 25.5799 91.488 25.2775 91.7831 25.04C92.3832 24.5459 93.3843 24.2998 94.7864 24.3015C95.3087 24.3013 95.8303 24.3379 96.3473 24.4111V24.2441C96.3473 23.4926 96.1858 22.962 95.863 22.6524C95.477 22.3231 94.976 22.1572 94.4679 22.1905C94.0128 22.196 93.5601 22.2573 93.1202 22.3732C92.6844 22.4773 92.2596 22.6224 91.8515 22.8063L91.5409 21.3868C91.9873 21.198 92.4509 21.052 92.9255 20.951C93.5223 20.8173 94.1324 20.7507 94.7443 20.7527C95.3926 20.7352 96.0376 20.8497 96.6395 21.0893C97.1688 21.3214 97.5998 21.7293 97.8582 22.2427C98.1812 22.9302 98.332 23.6848 98.2977 24.4424V27.8346C98.2977 28.1825 98.3188 28.7166 98.3609 29.4368L96.5236 29.4342ZM95.3444 27.8685C95.7238 27.6937 96.0647 27.4463 96.3473 27.1405V25.5749C95.9104 25.5237 95.4711 25.4949 95.0312 25.4888C94.2187 25.4888 93.6563 25.6192 93.344 25.8802C93.1916 26.0078 93.0705 26.1681 92.9898 26.3489C92.9091 26.5297 92.8709 26.7263 92.8781 26.9239C92.8638 27.0947 92.8868 27.2665 92.9454 27.4276C93.0039 27.5888 93.0968 27.7356 93.2176 27.8581C93.4742 28.0726 93.8038 28.1818 94.1389 28.1634C94.5581 28.1571 94.9704 28.0563 95.3444 27.8685Z" fill="white"/>
<path d="M99.8191 27.388V17.3157L101.777 17.1592V27.0409C101.75 27.3152 101.815 27.5909 101.964 27.8237C102.04 27.9039 102.132 27.966 102.235 28.0054C102.338 28.0447 102.449 28.0602 102.559 28.0508C102.738 28.0431 102.915 28.0133 103.086 27.962L103.317 29.3607C103.097 29.4432 102.868 29.5026 102.636 29.5381C102.384 29.5813 102.13 29.604 101.875 29.606C100.504 29.5973 99.8191 28.8579 99.8191 27.388Z" fill="white"/>
<path d="M104.718 27.388V17.3157L106.678 17.1592V27.0409C106.651 27.3152 106.716 27.5909 106.865 27.8237C106.941 27.9039 107.033 27.966 107.136 28.0054C107.239 28.0447 107.35 28.0602 107.46 28.0508C107.639 28.0431 107.816 28.0133 107.987 27.962L108.216 29.3607C107.996 29.4432 107.769 29.5027 107.537 29.5381C107.284 29.5814 107.029 29.6041 106.773 29.606C105.405 29.5973 104.719 28.8579 104.718 27.388Z" fill="white"/>
<path d="M116.27 25.4204H110.645C110.735 27.2069 111.593 28.1002 113.219 28.1002C113.637 28.0981 114.053 28.0491 114.459 27.9541C114.874 27.8583 115.28 27.7274 115.673 27.5627L116.104 28.8987C115.091 29.3721 113.982 29.6096 112.861 29.5928C112.059 29.6157 111.264 29.4362 110.55 29.0709C109.932 28.7398 109.436 28.2226 109.134 27.594C108.8 26.8657 108.638 26.0714 108.66 25.2716C108.639 24.4336 108.811 23.6017 109.163 22.8397C109.464 22.193 109.95 21.6485 110.561 21.2741C111.187 20.9085 111.903 20.7224 112.63 20.7365C113.351 20.7113 114.062 20.9092 114.664 21.3028C115.208 21.6766 115.629 22.2 115.875 22.8084C116.146 23.471 116.281 24.1809 116.27 24.8959V25.4204ZM114.351 24.1809C114.355 23.6269 114.169 23.088 113.825 22.6518C113.67 22.4803 113.48 22.3446 113.266 22.2544C113.053 22.1642 112.822 22.1217 112.59 22.1299C112.357 22.1252 112.125 22.1692 111.91 22.2591C111.695 22.349 111.502 22.4828 111.343 22.6518C110.972 23.0805 110.744 23.6131 110.693 24.1757L114.351 24.1809Z" fill="white"/>
<path d="M117.76 23.0516C117.76 22.5845 117.736 21.8696 117.694 20.9119H119.537C119.568 21.1494 119.597 21.4338 119.629 21.76C119.66 22.0861 119.676 22.3575 119.687 22.5637C119.885 22.2311 120.11 21.9152 120.36 21.6191C120.578 21.366 120.84 21.1546 121.134 20.9954C121.444 20.8299 121.791 20.7463 122.142 20.7528C122.409 20.7463 122.675 20.7788 122.932 20.8493L122.685 22.5402C122.376 22.4517 122.053 22.4293 121.735 22.4742C121.417 22.5192 121.113 22.6307 120.842 22.8011C120.406 23.1221 120.027 23.5117 119.718 23.9545V29.4342H117.76V23.0516Z" fill="white"/>
<path d="M124.027 32.9231C123.787 32.8846 123.55 32.8279 123.319 32.7535L123.677 31.3314C123.843 31.3756 124.01 31.4113 124.18 31.4384C124.369 31.4717 124.561 31.4892 124.754 31.4906C125.631 31.4906 126.284 30.9348 126.712 29.8232L126.841 29.5074L123.669 20.9121H125.775L127.386 25.716C127.592 26.3339 127.759 26.964 127.886 27.6026C128.036 26.9868 128.21 26.3709 128.412 25.7551L130.018 20.9121H132L128.841 29.5466C128.603 30.2421 128.279 30.9056 127.875 31.5219C127.568 31.9874 127.148 32.3695 126.654 32.6335C126.124 32.8898 125.54 33.0152 124.951 32.9988C124.641 33 124.332 32.9747 124.027 32.9231Z" fill="white"/>
<path d="M50 7.09277H53.5008L53.4034 7.933H51.0213V9.55865H53.2665V10.3415H51.0213V12.1419H53.5297L53.4429 12.9952H50V7.09277Z" fill="white"/>
<path d="M55.9198 9.98398L54.0773 7.09277H55.246L56.4989 9.21682L57.815 7.09277H58.9495L57.1069 9.94744L59.0995 12.9952H57.915L56.4963 10.6729L55.0512 12.9952H53.9167L55.9198 9.98398Z" fill="white"/>
<path d="M59.8547 7.09277H61.4604C62.2132 7.09277 62.7905 7.24499 63.1923 7.54942C63.3922 7.70533 63.5512 7.90679 63.6556 8.13667C63.7601 8.36655 63.8071 8.61804 63.7925 8.86977C63.8036 9.22932 63.7124 9.58471 63.5292 9.89526C63.3505 10.1872 63.0898 10.4212 62.7791 10.5685C62.4338 10.7303 62.0554 10.8107 61.6736 10.8033C61.4085 10.7996 61.1442 10.7725 60.8839 10.7224V12.9952H59.8547V7.09277ZM62.4343 9.72826C62.5466 9.62135 62.6341 9.49157 62.6909 9.34786C62.7477 9.20415 62.7724 9.04994 62.7633 8.89586C62.7767 8.7482 62.7532 8.59954 62.6949 8.46301C62.6366 8.32648 62.5453 8.20629 62.429 8.11304C62.1328 7.93419 61.788 7.85036 61.4419 7.87298H60.8839V9.96049C61.0795 9.99542 61.2775 10.0155 61.4762 10.0205C61.8213 10.0462 62.1634 9.94181 62.4343 9.72826Z" fill="white"/>
<path d="M64.8086 7.09277H65.8351V12.1237H68.2989L68.212 12.9952H64.8086V7.09277Z" fill="white"/>
<path d="M69.8623 12.7055C69.4309 12.4649 69.0824 12.1012 68.8621 11.6618C68.6227 11.1747 68.5045 10.6378 68.5173 10.0961C68.5047 9.53008 68.6312 8.96947 68.8858 8.46266C69.1192 8.00581 69.4861 7.62934 69.9387 7.38237C70.4453 7.11934 71.0123 6.99163 71.5838 7.01184C72.1242 6.99746 72.6589 7.12435 73.1341 7.37976C73.5629 7.62126 73.9087 7.9849 74.1265 8.42352C74.3612 8.90553 74.4776 9.43576 74.466 9.97088C74.4803 10.5433 74.3528 11.1104 74.0949 11.6226C73.8592 12.0779 73.4929 12.4538 73.042 12.7029C72.5443 12.9654 71.9868 13.0966 71.4232 13.0839C70.8783 13.0975 70.3395 12.9669 69.8623 12.7055ZM72.5261 11.9827C72.8163 11.7921 73.0419 11.5193 73.1736 11.1999C73.3213 10.8342 73.3938 10.443 73.3868 10.0492C73.3934 9.66256 73.3292 9.27797 73.1973 8.91408C73.0792 8.5989 72.8683 8.32618 72.5919 8.13127C72.2714 7.93685 71.9029 7.83396 71.5272 7.83396C71.1514 7.83396 70.783 7.93685 70.4625 8.13127C70.1715 8.3314 69.9449 8.61043 69.8097 8.93496C69.6599 9.28556 69.5855 9.66325 69.5912 10.0439C69.5849 10.4362 69.6546 10.8259 69.7965 11.1921C69.9226 11.5271 70.1532 11.8135 70.4547 12.0096C70.7563 12.2058 71.1131 12.3015 71.4732 12.2828C71.8469 12.2919 72.2144 12.1872 72.5261 11.9827Z" fill="white"/>
<path d="M75.6111 7.09304H77.4747C78.0206 7.05473 78.564 7.19697 79.0197 7.49749C79.1946 7.63358 79.3338 7.80949 79.4254 8.01027C79.5171 8.21106 79.5585 8.4308 79.5462 8.65084C79.5524 8.93696 79.4873 9.22018 79.3567 9.47541C79.2424 9.6992 79.083 9.89728 78.8881 10.0573C78.714 10.1967 78.5185 10.3077 78.3091 10.3861L80.1516 12.9955H78.9539L77.4036 10.647H76.6482V12.9955H75.6111V7.09304ZM77.2246 9.88508C77.4532 9.89003 77.6797 9.84083 77.8853 9.74157C78.0704 9.65343 78.2265 9.51498 78.3354 9.34233C78.444 9.15805 78.4995 8.94775 78.4959 8.73434C78.5066 8.61117 78.4861 8.48732 78.4365 8.37392C78.3869 8.26051 78.3096 8.16109 78.2117 8.08461C77.9649 7.93145 77.6757 7.85932 77.3852 7.87846H76.6403V9.89552L77.2246 9.88508Z" fill="white"/>
<path d="M80.9543 7.09277H84.463L84.363 7.933H81.994V9.55865H84.2182V10.3415H81.973V12.1419H84.4814L84.4051 12.9952H80.9543V7.09277Z" fill="white"/>
<path d="M88.2795 7.09277H89.3061V12.9952H88.2795V7.09277Z" fill="white"/>
<path d="M92.0251 7.94343H90.1826L90.2721 7.09277H94.9047L94.81 7.94343H93.0543V12.9952H92.0251V7.94343Z" fill="white"/>
<path d="M99.3663 12.7052C98.9357 12.4644 98.5881 12.1007 98.3687 11.6615C98.1271 11.175 98.0079 10.6379 98.0213 10.0958C98.0087 9.52978 98.1352 8.96917 98.3898 8.46236C98.6239 8.00599 98.9906 7.62969 99.4426 7.38207C99.9453 7.11774 100.508 6.98652 101.077 7.0011C101.624 6.98651 102.165 7.11714 102.643 7.37946C103.073 7.62019 103.419 7.98404 103.636 8.42322C103.871 8.90501 103.989 9.43525 103.978 9.97058C103.992 10.5433 103.864 11.1107 103.604 11.6223C103.369 12.0781 103.003 12.4542 102.551 12.7026C102.054 12.9658 101.496 13.097 100.932 13.0836C100.386 13.0982 99.845 12.9675 99.3663 12.7052ZM102.033 11.9824C102.321 11.7909 102.546 11.5184 102.678 11.1996C102.825 10.8339 102.898 10.4427 102.891 10.0489C102.897 9.66226 102.833 9.27767 102.701 8.91378C102.584 8.59879 102.374 8.32603 102.098 8.13097C101.778 7.93632 101.409 7.83331 101.032 7.83331C100.656 7.83331 100.287 7.93632 99.9664 8.13097C99.6755 8.3311 99.4488 8.61013 99.3137 8.93466C99.1652 9.28563 99.0908 9.66307 99.0952 10.0436C99.0889 10.4359 99.1586 10.8256 99.3005 11.1918C99.4261 11.5137 99.645 11.7915 99.9296 11.9903C100.241 12.1941 100.609 12.2963 100.982 12.2825C101.355 12.2901 101.721 12.1855 102.033 11.9824Z" fill="white"/>
<path d="M105.118 7.09277H106.297L109.242 11.667C109.216 11.2313 109.205 10.832 109.205 10.4641V7.09277H110.158V12.9952H109.016L106.026 8.34789C106.055 8.86977 106.071 9.34207 106.071 9.75174V12.9952H105.118V7.09277Z" fill="white"/>
<path fill-rule="evenodd" clip-rule="evenodd" d="M29.554 5H16.4428C10.2615 5 8 7.26105 8 13.4411V26.5589C8 32.7389 10.2615 35 16.4428 35H29.554C35.7353 35 38 32.7389 38 26.5589V13.4411C38.0063 7.26105 35.7448 5 29.554 5Z" fill="#C8102E"/>
<path d="M13.9413 20H14.7373V23.9261H13.9413V22.331H12.1441V23.9261H11.3481V20H12.1441V21.5793H13.9413V20ZM18.4265 22.2457C18.4265 22.8774 18.1106 23.2249 17.5358 23.2249C16.9609 23.2249 16.6387 22.8774 16.6387 22.211V20H15.8428V22.2426C15.8428 23.3449 16.4555 23.9766 17.5231 23.9766C18.5907 23.9766 19.2224 23.3449 19.2224 22.2078V20H18.4265V22.2457ZM27.6242 22.6974L26.7335 20H26.0797L25.1953 22.7006L24.3267 20H23.4802L24.8478 23.9261H25.508L26.3955 21.3487L27.2862 23.9261H27.9527L29.3203 20H28.4928L27.6242 22.6974ZM30.7449 22.2331H32.1946V21.5224H30.7449V20.7201H32.8485V20H29.9615V23.9166H32.9243V23.2091H30.7449V22.2331ZM33.8718 23.9166H34.6583V20H33.8718V23.9166ZM20.7954 23.1049L20.4385 23.9198H19.6267L21.3418 20H22.043L23.7644 23.9198H22.9432L22.6052 23.108L20.7954 23.1049ZM21.0923 22.3973H22.2894L21.6893 20.9949L21.0923 22.3973Z" fill="white"/>
<path d="M23.0032 15.0093C21.6791 15.0085 20.4094 14.4821 19.4731 13.5458C18.5367 12.6094 18.0104 11.3398 18.0095 10.0156H18.7139C18.7139 11.1532 19.1658 12.2442 19.9702 13.0486C20.7746 13.853 21.8656 14.3049 23.0032 14.3049C24.1408 14.3049 25.2318 13.853 26.0362 13.0486C26.8406 12.2442 27.2925 11.1532 27.2925 10.0156H27.9969C27.9961 11.3398 27.4697 12.6094 26.5334 13.5458C25.597 14.4821 24.3274 15.0085 23.0032 15.0093Z" fill="white"/>
</g>
<defs>
<clipPath id="clip0_116_142679">
<rect width="144" height="40" fill="white"/>
</clipPath>
</defs>
</svg>
