<svg width="144" height="40" viewBox="0 0 144 40" fill="none" xmlns="http://www.w3.org/2000/svg">
<g clip-path="url(#clip0_116_142631)">
<path fill-rule="evenodd" clip-rule="evenodd" d="M138.665 40H5.3353C2.39479 40 0 37.7456 0 35V5C0 2.24439 2.39479 0 5.3353 0H138.665C141.603 0 144 2.24439 144 5V35C144 37.7456 141.603 40 138.665 40Z" fill="black"/>
<path fill-rule="evenodd" clip-rule="evenodd" d="M138.998 0.800499C141.31 0.800499 143.203 2.68828 143.203 5V35C143.203 37.3117 141.323 39.1995 138.998 39.1995H5.00184C2.68967 39.1995 0.797215 37.3117 0.797215 35V5C0.797215 2.68828 2.67725 0.800499 5.00184 0.800499H138.998ZM138.998 0H5.00184C2.24512 0 0 2.25436 0 5V35C0 37.7556 2.24512 40 5.00184 40H138.998C141.752 40 144 37.7556 144 35V5C144 2.25436 141.752 0 138.998 0Z" fill="#A6A6A6"/>
<path d="M76.3642 13.1581C75.4883 13.1581 74.7499 12.8565 74.166 12.2627C73.5869 11.6856 73.2635 10.8901 73.278 10.0778C73.278 9.21102 73.5772 8.47718 74.166 7.89533C74.7475 7.30161 75.4859 7 76.3618 7C77.228 7 77.9664 7.30161 78.56 7.89533C79.1487 8.49618 79.4479 9.23002 79.4479 10.0778C79.4383 10.9471 79.1391 11.6809 78.56 12.2604C77.9784 12.8588 77.2401 13.1581 76.3642 13.1581ZM50.3019 13.1581C49.4453 13.1581 48.7021 12.8612 48.094 12.2746C47.4908 11.6904 47.1843 10.9518 47.1843 10.0802C47.1843 9.20864 47.4908 8.47005 48.094 7.88583C48.69 7.29924 49.4332 7.00238 50.3019 7.00238C50.7265 7.00238 51.1392 7.0855 51.5349 7.25411C51.9234 7.41798 52.2395 7.64122 52.4735 7.91433L52.5314 7.9832L51.8775 8.61492L51.81 8.53655C51.4408 8.10432 50.9461 7.89296 50.2922 7.89296C49.7083 7.89296 49.1991 8.0972 48.7793 8.50093C48.357 8.90703 48.1423 9.43901 48.1423 10.0826C48.1423 10.7262 48.357 11.2582 48.7793 11.6643C49.1991 12.068 49.7083 12.2722 50.2922 12.2722C50.9148 12.2722 51.4384 12.068 51.8462 11.6643C52.0874 11.4268 52.237 11.0943 52.2901 10.6739H50.1933V9.78574H53.1902L53.2022 9.86648C53.2239 10.0161 53.2457 10.1705 53.2457 10.313C53.2457 11.1323 52.9947 11.7949 52.4976 12.2841C51.933 12.8636 51.1947 13.1581 50.3019 13.1581ZM84.9543 13.0322H84.0301L81.1997 8.57455L81.2239 9.37726V13.0298H80.2997V7.12824H81.3542L81.3831 7.17337L84.0446 11.3722L84.0205 10.5718V7.12824H84.9543V13.0322ZM69.4197 13.0322H68.4835V8.01645H66.8595V7.12824H71.0412V8.01645H69.4173V13.0322H69.4197ZM66.0971 13.0322H65.1632V7.12824H66.0971V13.0322ZM60.8489 13.0322H59.9151V8.01645H58.2912V7.12824H62.4728V8.01645H60.8489V13.0322ZM57.7 13.0227H54.1192V7.12824H57.7V8.01645H55.0554V9.63612H57.4418V10.5148H55.0554V12.1345H57.7V13.0227ZM74.8512 11.6524C75.2687 12.0633 75.7754 12.2699 76.3642 12.2699C76.9698 12.2699 77.4645 12.068 77.8771 11.6524C78.2873 11.2487 78.4948 10.7191 78.4948 10.0802C78.4948 9.44138 78.2873 8.90941 77.8795 8.50805C77.4621 8.0972 76.9529 7.89058 76.3666 7.89058C75.7609 7.89058 75.2663 8.09245 74.8561 8.50805C74.4459 8.91178 74.2384 9.44138 74.2384 10.0802C74.2384 10.7191 74.4435 11.251 74.8512 11.6524Z" fill="white"/>
<path fill-rule="evenodd" clip-rule="evenodd" d="M73.1904 21.2754C70.9101 21.2754 69.0618 22.9782 69.0618 25.3269C69.0618 27.6543 70.9222 29.3785 73.1904 29.3785C75.4706 29.3785 77.319 27.6638 77.319 25.3269C77.319 22.9782 75.4706 21.2754 73.1904 21.2754ZM73.1904 27.7731C71.9429 27.7731 70.8691 26.7566 70.8691 25.3174C70.8691 23.8569 71.9453 22.8618 73.1904 22.8618C74.4379 22.8618 75.5117 23.8569 75.5117 25.3174C75.5141 26.7661 74.4379 27.7731 73.1904 27.7731ZM64.1828 21.2754C61.9025 21.2754 60.0542 22.9782 60.0542 25.3269C60.0542 27.6543 61.9146 29.3785 64.1828 29.3785C66.463 29.3785 68.3114 27.6638 68.3114 25.3269C68.3114 22.9782 66.4606 21.2754 64.1828 21.2754ZM64.1828 27.7731C62.9353 27.7731 61.8615 26.7566 61.8615 25.3174C61.8615 23.8569 62.9377 22.8618 64.1828 22.8618C65.4303 22.8618 66.504 23.8569 66.504 25.3174C66.504 26.7661 65.4303 27.7731 64.1828 27.7731ZM53.4644 22.5127V24.2274H57.646C57.5181 25.1892 57.1948 25.8993 56.7001 26.3861C56.0872 26.9893 55.1414 27.6448 53.474 27.6448C50.9042 27.6448 48.8942 25.6024 48.8942 23.0732C48.8942 20.5439 50.9042 18.5015 53.474 18.5015C54.8615 18.5015 55.8725 19.0406 56.6229 19.7293L57.8584 18.5134C56.816 17.5302 55.4285 16.7773 53.4837 16.7773C49.9583 16.7773 47 19.6035 47 23.0637C47 26.5334 49.9559 29.35 53.4837 29.35C55.3875 29.35 56.816 28.7373 57.9452 27.5831C59.0962 26.4502 59.4606 24.8519 59.4606 23.5624C59.4606 23.161 59.4292 22.8 59.3641 22.4937H53.4619C53.4644 22.4913 53.4644 22.5127 53.4644 22.5127ZM97.3056 23.8474C96.9606 22.9378 95.9182 21.2659 93.7803 21.2659C91.6617 21.2659 89.9002 22.9069 89.9002 25.3174C89.9002 27.5926 91.6424 29.369 93.9854 29.369C95.8675 29.369 96.963 28.2362 97.4142 27.5712L96.0171 26.6497C95.5538 27.3266 94.9095 27.7707 93.995 27.7707C93.0709 27.7707 92.4242 27.3574 91.9947 26.5429L97.4987 24.2986C97.4987 24.301 97.3056 23.8474 97.3056 23.8474ZM91.6931 25.2011C91.6496 23.636 92.9285 22.8404 93.843 22.8404C94.5645 22.8404 95.1653 23.1895 95.3704 23.6978L91.6931 25.2011ZM87.2218 29.1267H89.0291V17.2238H87.2218V29.1267ZM84.2539 22.1755H84.1887C83.7809 21.6981 83.0064 21.2659 82.017 21.2659C79.9636 21.2659 78.0718 23.0447 78.0718 25.3293C78.0718 27.6044 79.9539 29.3619 82.017 29.3619C82.9943 29.3619 83.7809 28.9272 84.1887 28.4404H84.2539V29.0222C84.2539 30.5683 83.4141 31.4019 82.0605 31.4019C80.9529 31.4019 80.2652 30.6182 79.9853 29.9627L78.4145 30.6087C78.8657 31.6774 80.0698 33.0002 82.0581 33.0002C84.1767 33.0002 85.9719 31.7724 85.9719 28.7776V21.5081H84.2635V22.1755C84.2659 22.1755 84.2539 22.1755 84.2539 22.1755ZM82.1787 27.7731C80.9312 27.7731 79.8888 26.7471 79.8888 25.3293C79.8888 23.8996 80.9312 22.8642 82.1787 22.8642C83.4142 22.8642 84.3721 23.9115 84.3721 25.3293C84.3842 26.7471 83.4166 27.7731 82.1787 27.7731ZM105.768 17.2238H101.446V29.1267H103.254V24.6192H105.77C107.771 24.6192 109.737 23.1919 109.737 20.9263C109.737 18.6606 107.778 17.2238 105.768 17.2238ZM105.821 22.9568H103.251V18.872H105.821C107.175 18.872 107.94 19.9716 107.94 20.9144C107.94 21.8477 107.165 22.9568 105.821 22.9568ZM116.981 21.254C115.668 21.254 114.315 21.8263 113.755 23.0732L115.357 23.7286C115.702 23.0732 116.334 22.8499 117.003 22.8499C117.939 22.8499 118.885 23.4009 118.907 24.3841V24.51C118.583 24.3295 117.874 24.054 117.024 24.054C115.294 24.054 113.54 24.9849 113.54 26.7305C113.54 28.3288 114.959 29.3547 116.539 29.3547C117.753 29.3547 118.422 28.8156 118.839 28.191H118.904V29.1125H120.646V24.5527C120.646 22.4296 119.044 21.254 116.981 21.254ZM116.754 27.7731C116.163 27.7731 115.335 27.4881 115.335 26.7566C115.335 25.8351 116.368 25.486 117.249 25.486C118.045 25.486 118.422 25.6547 118.894 25.8874C118.764 26.9561 117.847 27.7636 116.754 27.7731ZM127.002 21.5081L124.927 26.6711H124.862L122.712 21.5081H120.767L123.993 28.7254L122.154 32.7366H124.037L129 21.5081H127.002ZM110.734 29.1267H112.541V17.2238H110.734V29.1267Z" fill="white"/>
<path fill-rule="evenodd" clip-rule="evenodd" d="M8.53383 5.45938C8.19545 5.82293 8 6.37842 8 7.1055V32.8936C8 33.6207 8.19545 34.1762 8.5455 34.5252L8.63593 34.6037L23.1282 20.1552V19.8323L8.62426 5.38086L8.53383 5.45938Z" fill="url(#paint0_linear_116_142631)"/>
<path fill-rule="evenodd" clip-rule="evenodd" d="M27.9499 24.9853L23.1162 20.1662V19.8289L27.9499 15.0098L28.0549 15.0737L33.7725 18.3136C35.409 19.2327 35.409 20.7508 33.7725 21.6815L28.0549 24.9213L27.9499 24.9853Z" fill="url(#paint1_linear_116_142631)"/>
<path fill-rule="evenodd" clip-rule="evenodd" d="M28.0548 24.9218L23.1161 19.998L8.53345 34.5368C9.06728 35.1068 9.96284 35.1708 10.9634 34.6153L28.0548 24.9218Z" fill="url(#paint2_linear_116_142631)"/>
<path fill-rule="evenodd" clip-rule="evenodd" d="M28.0548 15.0741L10.9634 5.39517C9.96284 4.82513 9.06436 4.90366 8.53345 5.47369L23.1161 19.9979L28.0548 15.0741Z" fill="url(#paint3_linear_116_142631)"/>
<path opacity="0.2" fill-rule="evenodd" clip-rule="evenodd" d="M27.9497 24.8174L10.9749 34.4323C10.0268 34.9761 9.18086 34.9383 8.63535 34.4439L8.54492 34.5341L8.63535 34.6126C9.18086 35.1041 10.0268 35.1448 10.9749 34.601L28.0664 24.9221L27.9497 24.8174Z" fill="black"/>
<path opacity="0.12" fill-rule="evenodd" clip-rule="evenodd" d="M33.7727 21.5133L27.9355 24.8171L28.0406 24.9218L33.7581 21.682C34.5778 21.2166 34.9804 20.6059 34.9804 19.998C34.9308 20.5564 34.5136 21.0858 33.7727 21.5133Z" fill="black"/>
<path opacity="0.25" fill-rule="evenodd" clip-rule="evenodd" d="M10.9638 5.56405L33.7727 18.4828C34.5137 18.8987 34.9308 19.4426 34.995 19.9981C34.995 19.3902 34.5925 18.7795 33.7727 18.3142L10.9638 5.39536C9.32729 4.46179 8 5.24122 8 7.10546V7.27414C8 5.407 9.32729 4.64211 10.9638 5.56405Z" fill="white"/>
</g>
<defs>
<linearGradient id="paint0_linear_116_142631" x1="21.8282" y1="6.82727" x2="-1.37651" y2="13.0289" gradientUnits="userSpaceOnUse">
<stop stop-color="#00A0FF"/>
<stop offset="0.00657" stop-color="#00A1FF"/>
<stop offset="0.2601" stop-color="#00BEFF"/>
<stop offset="0.5122" stop-color="#00D2FF"/>
<stop offset="0.7604" stop-color="#00DFFF"/>
<stop offset="1" stop-color="#00E3FF"/>
</linearGradient>
<linearGradient id="paint1_linear_116_142631" x1="35.9067" y1="19.9976" x2="7.60187" y2="19.9976" gradientUnits="userSpaceOnUse">
<stop stop-color="#FFE000"/>
<stop offset="0.4087" stop-color="#FFBD00"/>
<stop offset="0.7754" stop-color="#FFA500"/>
<stop offset="1" stop-color="#FF9C00"/>
</linearGradient>
<linearGradient id="paint2_linear_116_142631" x1="25.3693" y1="22.6773" x2="6.81623" y2="53.9981" gradientUnits="userSpaceOnUse">
<stop stop-color="#FF3A44"/>
<stop offset="1" stop-color="#C31162"/>
</linearGradient>
<linearGradient id="paint3_linear_116_142631" x1="4.86137" y1="-3.11839" x2="13.1386" y2="10.8699" gradientUnits="userSpaceOnUse">
<stop stop-color="#32A071"/>
<stop offset="0.0685" stop-color="#2DA771"/>
<stop offset="0.4762" stop-color="#15CF74"/>
<stop offset="0.8009" stop-color="#06E775"/>
<stop offset="1" stop-color="#00F076"/>
</linearGradient>
<clipPath id="clip0_116_142631">
<rect width="144" height="40" fill="white"/>
</clipPath>
</defs>
</svg>
