<svg width="48" height="48" viewBox="0 0 48 48" fill="none" xmlns="http://www.w3.org/2000/svg">
<g filter="url(#filter0_d_1_15777)" transform="scale(-1, 1) translate(-48, 0)">
<rect x="4" width="40" height="40" rx="20" fill="white"/>
<path fill-rule="evenodd" clip-rule="evenodd" d="M31.7545 20.6564C31.9074 20.4807 32 20.2512 32 20C32 19.9964 32 19.9928 31.9999 19.9892C31.9973 19.7437 31.9063 19.5195 31.7572 19.3468L25.7593 12.3492C25.3998 11.9299 24.7685 11.8813 24.3492 12.2408C23.9299 12.6002 23.8813 13.2315 24.2407 13.6508L28.8258 19L17 19C16.4477 19 16 19.4477 16 20C16 20.5523 16.4477 21 17 21L28.8258 21L24.2407 26.3492C23.8813 26.7686 23.9299 27.3999 24.3492 27.7593C24.7685 28.1187 25.3998 28.0701 25.7593 27.6508L31.7545 20.6564Z" fill="url(#paint0_linear_1_15777)"/>
</g>
<defs>
<filter id="filter0_d_1_15777" x="0" y="0" width="48" height="48" filterUnits="userSpaceOnUse" color-interpolation-filters="sRGB">
<feFlood flood-opacity="0" result="BackgroundImageFix"/>
<feColorMatrix in="SourceAlpha" type="matrix" values="0 0 0 0 0 0 0 0 0 0 0 0 0 0 0 0 0 0 127 0" result="hardAlpha"/>
<feOffset dy="4"/>
<feGaussianBlur stdDeviation="2"/>
<feColorMatrix type="matrix" values="0 0 0 0 0 0 0 0 0 0 0 0 0 0 0 0 0 0 0.25 0"/>
<feBlend mode="normal" in2="BackgroundImageFix" result="effect1_dropShadow_1_15777"/>
<feBlend mode="normal" in="SourceGraphic" in2="effect1_dropShadow_1_15777" result="shape"/>
</filter>
<linearGradient id="paint0_linear_1_15777" x1="24" y1="12" x2="24" y2="28" gradientUnits="userSpaceOnUse">
<stop stop-color="#ED0226"/>
<stop offset="1" stop-color="#B90024"/>
</linearGradient>
</defs>
</svg>
