<svg width="32" height="32" viewBox="0 0 32 32" fill="none" xmlns="http://www.w3.org/2000/svg">
<path fill-rule="evenodd" clip-rule="evenodd" d="M4 6.4C4 5.07452 5.07452 4 6.4 4H25.6C26.9255 4 28 5.07452 28 6.4V20.2667C28 21.5922 26.9255 22.6667 25.6 22.6667H17.6345L10.7682 27.7218C10.4105 28.0199 9.91267 28.0842 9.49101 27.8867C9.06935 27.6892 8.8 27.2656 8.8 26.8V25.2084C9.10451 25.1769 9.39698 25.1082 9.67071 25.0178C10.3612 24.7898 10.9937 24.4033 11.5076 24.0208L16.4318 20.2781C16.6474 20.0984 16.9193 20 17.2 20H25.3333V6.66667H6.76989L6.66667 20H10C10.6627 20 11.2 20.8039 11.2 21.4667V21.9292L11.1899 21.9385L11.1838 21.9442C10.6879 22.4102 9.90697 23.0442 9.10637 23.3086C9.00087 23.3434 8.89877 23.3705 8.8 23.39V22.6667H7.12482L7.1198 22.66L7.1109 22.6667H6.4C5.07452 22.6667 4 21.5922 4 20.2667V6.4ZM10.6004 14.2C11.4288 14.2 12.1004 13.5284 12.1004 12.7C12.1004 11.8715 11.4288 11.2 10.6004 11.2C9.77199 11.2 9.10041 11.8715 9.10041 12.7C9.10041 13.5284 9.77199 14.2 10.6004 14.2ZM16 14.2C16.8284 14.2 17.5 13.5284 17.5 12.7C17.5 11.8715 16.8284 11.2 16 11.2C15.1716 11.2 14.5 11.8715 14.5 12.7C14.5 13.5284 15.1716 14.2 16 14.2ZM22.8996 12.7C22.8996 13.5284 22.228 14.2 21.3996 14.2C20.5712 14.2 19.8996 13.5284 19.8996 12.7C19.8996 11.8715 20.5712 11.2 21.3996 11.2C22.228 11.2 22.8996 11.8715 22.8996 12.7Z" fill="url(#paint0_linear_22_112054)"/>
<defs>
<linearGradient id="paint0_linear_22_112054" x1="16" y1="4" x2="16" y2="28" gradientUnits="userSpaceOnUse">
<stop offset="0.630208" stop-color="#ED0226"/>
<stop offset="1" stop-color="#FDA22B"/>
</linearGradient>
</defs>
</svg>
