<svg width="32" height="32" viewBox="0 0 32 32" fill="none" xmlns="http://www.w3.org/2000/svg">
<path fill-rule="evenodd" clip-rule="evenodd" d="M3.72362 11.5614C4.06571 8.03133 7.12867 5.33301 10.7937 5.33301H21.3132C25.7295 5.33301 28.4655 8.05322 28.828 12.1766L28.8568 12.1753L29.3281 21.7499C29.4598 24.4265 27.2521 26.6663 24.4822 26.6663C22.7069 26.6663 21.0733 25.7282 20.2232 24.2205L18.0645 20.3918H13.4447L11.5004 24.1537C10.7045 25.6936 9.07753 26.6663 7.29785 26.6663C4.95717 26.6663 3.04542 25.0194 2.66699 22.8988C3.83053 23.6229 5.32153 24.0721 6.93964 24.1273C7.05591 24.1465 7.17557 24.1565 7.29785 24.1565C8.09486 24.1565 8.82346 23.7209 9.17989 23.0313L11.18 19.1615C11.5853 18.3774 12.4137 17.882 13.32 17.882H20.4261C23.6499 17.882 26.2634 15.9812 26.2634 12.8624C26.2634 9.74364 24.5371 7.99967 21.3132 7.99967L10.7937 7.99967C8.46768 7.99967 6.52377 9.55531 6.30666 11.7957L5.21178 21.849C4.58447 21.6681 4.03121 21.4105 3.57862 21.1049C3.23682 20.8741 2.96718 20.6281 2.76344 20.3779L3.72362 11.5614ZM21.0107 20.3758C23.1904 20.2555 25.1425 19.4641 26.5545 18.1684L26.7366 21.8693C26.7979 23.1145 25.7708 24.1565 24.4822 24.1565C23.6563 24.1565 22.8963 23.7201 22.5008 23.0186L21.0107 20.3758Z" fill="url(#paint0_linear_22_112062)"/>
<path d="M22.65 11.333C22.65 12.0694 22.0515 12.6663 21.3132 12.6663C20.575 12.6663 19.9765 12.0694 19.9765 11.333C19.9765 10.5966 20.575 9.99967 21.3132 9.99967C22.0515 9.99967 22.65 10.5966 22.65 11.333Z" fill="url(#paint1_linear_22_112062)"/>
<path d="M21.3132 14.6663C21.3132 15.4027 20.7148 15.9997 19.9765 15.9997C19.2382 15.9997 18.6398 15.4027 18.6398 14.6663C18.6398 13.93 19.2382 13.333 19.9765 13.333C20.7148 13.333 21.3132 13.93 21.3132 14.6663Z" fill="url(#paint2_linear_22_112062)"/>
<path d="M13.2928 10.3997C13.2928 9.66329 12.6943 9.06634 11.9561 9.06634C11.2178 9.06634 10.6193 9.66329 10.6193 10.3997V11.733H9.28259C8.54433 11.733 7.94585 12.33 7.94585 13.0663C7.94585 13.8027 8.54433 14.3997 9.28259 14.3997H10.6193V15.733C10.6193 16.4694 11.2178 17.0663 11.9561 17.0663C12.6943 17.0663 13.2928 16.4694 13.2928 15.733V14.3997H14.6295C15.3678 14.3997 15.9663 13.8027 15.9663 13.0663C15.9663 12.33 15.3678 11.733 14.6295 11.733H13.2928V10.3997Z" fill="url(#paint3_linear_22_112062)"/>
<defs>
<linearGradient id="paint0_linear_22_112062" x1="16.0003" y1="5.33301" x2="16.0003" y2="26.6663" gradientUnits="userSpaceOnUse">
<stop offset="0.630208" stop-color="#ED0226"/>
<stop offset="1" stop-color="#FDA22B"/>
</linearGradient>
<linearGradient id="paint1_linear_22_112062" x1="16.0003" y1="5.33301" x2="16.0003" y2="26.6663" gradientUnits="userSpaceOnUse">
<stop offset="0.630208" stop-color="#ED0226"/>
<stop offset="1" stop-color="#FDA22B"/>
</linearGradient>
<linearGradient id="paint2_linear_22_112062" x1="16.0003" y1="5.33301" x2="16.0003" y2="26.6663" gradientUnits="userSpaceOnUse">
<stop offset="0.630208" stop-color="#ED0226"/>
<stop offset="1" stop-color="#FDA22B"/>
</linearGradient>
<linearGradient id="paint3_linear_22_112062" x1="16.0003" y1="5.33301" x2="16.0003" y2="26.6663" gradientUnits="userSpaceOnUse">
<stop offset="0.630208" stop-color="#ED0226"/>
<stop offset="1" stop-color="#FDA22B"/>
</linearGradient>
</defs>
</svg>
