<svg width="32" height="32" viewBox="0 0 32 32" fill="none" xmlns="http://www.w3.org/2000/svg">
<path fill-rule="evenodd" clip-rule="evenodd" d="M14.6722 12.0088C13.7833 11.4903 12.667 12.1315 12.667 13.1605V20.1725C12.667 21.2015 13.7833 21.8427 14.6722 21.3242L20.6824 17.8182C21.5644 17.3037 21.5644 16.0293 20.6824 15.5148L14.6722 12.0088Z" fill="url(#paint0_linear_22_112045)"/>
<path fill-rule="evenodd" clip-rule="evenodd" d="M7.24526 7.99984H6.66699C5.93061 7.99984 5.33366 8.59679 5.33366 9.33317V22.5633C4.78947 22.4785 4.24678 22.3387 3.75659 22.1345C3.33057 21.957 2.96276 21.7394 2.66699 21.4801V9.33317C2.66699 7.12403 4.45785 5.33317 6.66699 5.33317H7.97811C7.99201 5.33295 8.00589 5.33295 8.01977 5.33317H14.6448C14.6587 5.33295 14.6726 5.33295 14.6864 5.33317H21.3114C21.3253 5.33295 21.3392 5.33295 21.3531 5.33317H25.3337C27.5428 5.33317 29.3337 7.12403 29.3337 9.33317V22.6665C29.3337 24.8756 27.5428 26.6665 25.3337 26.6665H6.66699C4.60507 26.6665 2.90753 25.1064 2.69044 23.1022C2.87099 23.1997 3.05631 23.2871 3.24377 23.3652C4.34537 23.8242 5.60394 23.9999 6.66685 23.9999L6.67177 23.9998H25.3337C26.07 23.9998 26.667 23.4029 26.667 22.6665V9.33317C26.667 8.59679 26.07 7.99984 25.3337 7.99984H23.6884L24.4769 9.31388C24.8557 9.94532 24.651 10.7643 24.0195 11.1432C23.3881 11.5221 22.5691 11.3173 22.1902 10.6859L20.5786 7.99984H17.0218L17.8102 9.31388C18.1891 9.94532 17.9843 10.7643 17.3529 11.1432C16.7214 11.5221 15.9024 11.3173 15.5235 10.6859L13.9119 7.99984H10.3551L11.1435 9.31388C11.5224 9.94532 11.3176 10.7643 10.6862 11.1432C10.0548 11.5221 9.23574 11.3173 8.85688 10.6859L7.24526 7.99984Z" fill="url(#paint1_linear_22_112045)"/>
<defs>
<linearGradient id="paint0_linear_22_112045" x1="17.0054" y1="11.8252" x2="17.0054" y2="21.5078" gradientUnits="userSpaceOnUse">
<stop offset="0.630208" stop-color="#ED0226"/>
<stop offset="1" stop-color="#FDA22B"/>
</linearGradient>
<linearGradient id="paint1_linear_22_112045" x1="16.0003" y1="5.33301" x2="16.0003" y2="26.6665" gradientUnits="userSpaceOnUse">
<stop offset="0.630208" stop-color="#ED0226"/>
<stop offset="1" stop-color="#FDA22B"/>
</linearGradient>
</defs>
</svg>
