<svg width="32" height="32" viewBox="0 0 32 32" fill="none" xmlns="http://www.w3.org/2000/svg">
<path fill-rule="evenodd" clip-rule="evenodd" d="M25.6 15.4441V10.6026L13.5999 15.6019V23.2008C13.5999 25.8513 11.4508 28 8.79982 28C6.87481 28 5.21446 26.867 4.44945 25.2316C5.53318 25.5118 6.77532 25.6004 7.59981 25.6004H8.79982C10.1253 25.6004 11.1998 24.526 11.1998 23.2008C11.1998 21.8755 10.1253 20.8011 8.79982 20.8011C7.47433 20.8011 6.3998 21.8755 6.3998 23.2007C6.3998 23.3883 6.42133 23.5709 6.46205 23.7461C5.91969 23.6962 5.34219 23.6089 4.83439 23.4718C4.47854 23.3758 4.19909 23.2661 4 23.1542C4.02497 20.5251 6.16436 18.4015 8.79982 18.4015C9.67412 18.4015 10.4938 18.6352 11.1998 19.0435V11.6026C11.1998 10.1495 12.0737 8.83888 13.4152 8.28L23.0153 4.28062C25.3866 3.29274 28 5.0347 28 7.60318V19.6013C28 22.2519 25.8509 24.4006 23.2 24.4006C20.549 24.4006 18.3999 22.2519 18.3999 19.6013C18.3999 16.9508 20.549 14.8021 23.2 14.8021C24.0743 14.8021 24.894 15.0358 25.6 15.4441ZM23.9384 6.49566C24.7289 6.16637 25.6 6.74702 25.6 7.60318V8.00303L13.5999 13.0023V11.6026C13.5999 11.1182 13.8912 10.6813 14.3383 10.495L23.9384 6.49566ZM25.6 19.6013C25.6 18.276 24.5255 17.2017 23.2 17.2017C21.8745 17.2017 20.7999 18.276 20.7999 19.6013C20.7999 20.9266 21.8745 22.0009 23.2 22.0009C24.5255 22.0009 25.6 20.9266 25.6 19.6013Z" fill="url(#paint0_linear_22_112070)"/>
<defs>
<linearGradient id="paint0_linear_22_112070" x1="16" y1="4" x2="16" y2="28" gradientUnits="userSpaceOnUse">
<stop offset="0.630208" stop-color="#ED0226"/>
<stop offset="1" stop-color="#FDA22B"/>
</linearGradient>
</defs>
</svg>
