<svg width="24" height="24" viewBox="0 0 24 24" fill="none" xmlns="http://www.w3.org/2000/svg">
<path d="M3.3749 11.175C8.74359 8.82292 12.3236 7.27232 14.1148 6.52314C19.2292 4.38409 20.2919 4.01252 20.9846 4.00012C21.1369 3.99755 21.4776 4.03552 21.6982 4.21555C21.8845 4.36757 21.9358 4.57292 21.9603 4.71705C21.9848 4.86118 22.0154 5.18951 21.9911 5.44606C21.714 8.37425 20.5147 15.4802 19.9046 18.7598C19.6465 20.1476 19.1382 20.6129 18.6461 20.6584C17.5766 20.7574 16.7645 19.9477 15.7287 19.2649C14.1078 18.1966 13.1921 17.5315 11.6188 16.4889C9.80053 15.2841 10.9792 14.6219 12.0154 13.5396C12.2866 13.2564 16.9987 8.94662 17.0899 8.55565C17.1013 8.50676 17.1119 8.32449 17.0042 8.22825C16.8965 8.13201 16.7376 8.16492 16.6229 8.1911C16.4604 8.2282 13.871 9.94916 8.85486 13.354C8.11988 13.8615 7.45416 14.1087 6.8577 14.0958C6.20015 14.0815 4.93528 13.7219 3.99498 13.4146C2.84166 13.0376 1.92503 12.8383 2.00485 12.1981C2.04642 11.8646 2.5031 11.5236 3.3749 11.175Z" fill="#001A41"/>
</svg>
